<ttFont>
<head>
    <!-- Most of this table will be recalculated by the compiler -->
    <tableVersion value="1.0"/>
    <fontRevision value="1.0"/>
    <checkSumAdjustment value="0xe42e76b"/>
    <magicNumber value="0x5f0f3cf5"/>
    <flags value="00000000 00000011"/>
    <unitsPerEm value="2048"/>
    <created value="Tue May 30 14:31:26 2017"/>
    <modified value="Wed May 31 02:49:55 2017"/>
    <xMin value="-608"/>
    <yMin value="-511"/>
    <xMax value="2822"/>
    <yMax value="2150"/>
<macStyle value="00000000 00000010"/>
    <lowestRecPPEM value="3"/>
    <fontDirectionHint value="2"/>
    <indexToLocFormat value="0"/>
    <glyphDataFormat value="0"/>
  </head>
          <CharString index="0">
            rmoveto
            149 39 105 112 151 hhcurveto
            161 69 -111 -121 -9 0 -12 -1 -8 hvcurveto
            -314 -655 rmoveto
            236 187 150 202 55 hvcurveto
            -207 hlineto
            -102 -42 -93 -66 -131 hhcurveto
            -147 -94 108 171 11 0 12 1 12 hvcurveto
            749 hlineto
            8 48 3 57 47 vvcurveto
            275 -169 173 -266 -315 -220 -278 -350 -277 156 -193 289 vhcurveto
            return
          </CharString>
          <CharString index="1">
            rmoveto
            233 151 -167 -262 -358 -219 -290 -310 -234 -150 168 262 357 218 109 callsubr
            -148 -1283 rmoveto
            -54 callsubr
            373 -239 252 -373 -437 -322 -378 -486 -373 239 -252 371 hvcurveto
            return
          </CharString>
          <CharString index="2">
            169 rmoveto
            -147 -93 112 172 247 141 187 194 147 93 -113 -172 -246 -141 -187 -194 hvcurveto
            99 907 rmoveto
            -318 -238 -273 -356 -281 178 -186 276 317 238 272 356 282 -178 186 -275 hvcurveto
            return
          </CharString>
          <CharString index="3">
            251 701 -23 rmoveto
            355 220 181 305 66 hvcurveto
            208 980 rlineto
            -227 hlineto
            -199 -930 rlineto
            -205 -45 -151 -120 -198 hhcurveto
            -209 -108 103 162 -6 hvcurveto
            -1 37 4 40 10 43 183 870 rcurveline
            -227 hlineto
            -185 -881 -9 -43 -5 -44 1 -41 rlinecurve
            -259 1 185 -198 337 hhcurveto
            return
          </CharString>
          <CharString index="4">
            1192 rmoveto
            5 hlineto
            85 -621 rlineto
            -436 hlineto
            508 -571 rmoveto
            219 hlineto
            -210 -51 callsubr
            -245 hlineto
            -828 -27 callsubr
            243 hlineto
            217 383 rlineto
            554 hlineto
            return
          </CharString>
          <CharString index="5">
            -102 callgsubr
            endchar
          </CharString>
          <CharString index="6">
            rmoveto
            -689 hlineto
            95 433 rlineto
            652 hlineto
            40 194 rlineto
            -653 hlineto
            90 -56 callgsubr
            -918 -99 callsubr
            918 hlineto
            return
          </CharString>
          <CharString index="7">
            -385 rmoveto
            178 123 69 234 127 hvcurveto
            635 1137 rlineto
            -233 hlineto
            -435 -838 rlineto
            -4 hlineto
            -102 838 -16 callsubr
            159 -1046 rlineto
            -1 -27 -54 -2 vvcurveto
            -116 -55 -71 -37 -76 hhcurveto
            -33 -45 5 7 -18 hvcurveto
            -33 -183 rlineto
            -6 20 65 -7 39 hhcurveto
            return
          </CharString>
          <CharString index="8">
            hlineto
            57 callgsubr
            return
          </CharString>
          <CharString index="9">
            215 hlineto
            133 630 rlineto
            150 33 116 105 149 hhcurveto
            132 80 -77 -112 -28 -4 -31 -8 -35 hvcurveto
            -131 -602 76 callgsubr
            139 639 rlineto
            9 45 5 42 38 vvcurveto
            168 -131 142 -203 -159 -119 -80 -102 -62 vhcurveto
            -5 hlineto
            118 551 -16 callsubr
            return
          </CharString>
          <CharString index="10" raw="1">
            d31db3f7 5605fd98 2b1dd31d b2f75605
            fd9806f8 60fb5643 1d0b 
          </CharString>
          <CharString index="11">
            rmoveto
            138 127 75 106 66 hvcurveto
            5 hlineto
            -35 -163 rlineto
            213 -56 callsubr
            -214 hlineto
            -129 -593 rlineto
            -5 hlineto
            127 -33 -132 96 -165 hhcurveto
            -298 -229 -277 -372 -268 148 -174 236 hvcurveto
            68 189 rmoveto
            -147 -88 105 170 253 143 182 186 151 96 -110 -156 -251 -146 -193 -195 hvcurveto
            return
          </CharString>
          <CharString index="12">
            41 -94 callgsubr
            return
          </CharString>
          <CharString index="13">
            rmoveto
            39 42 5 6 34 hvcurveto
            36 176 rlineto
            -4 -21 -18 -1 -33 hhcurveto
            -84 -50 30 74 22 4 29 7 31 hvcurveto
            111 510 83 callsubr
            35 179 rlineto
            -221 hlineto
            55 260 -7 callsubr
            -53 -260 rlineto
            -157 hlineto
            -36 -179 rlineto
            156 hlineto
            -122 -560 rlineto
            -8 -36 -2 -33 -28 vvcurveto
            -148 115 -73 164 vhcurveto
            return
          </CharString>
          <CharString index="14">
            rmoveto
            -327 -223 -270 -367 -270 157 -189 287 234 193 160 217 47 hvcurveto
            -209 hlineto
            -113 -39 -94 -73 -127 hhcurveto
            -140 -92 105 172 256 135 180 192 142 82 -89 -111 4 hvcurveto
            206 hlineto
            1 5 0 0 13 vvcurveto
            198 -152 176 -277 vhcurveto
            return
          </CharString>
          <CharString index="15">
            -69 callsubr
            -229 hlineto
            -130 -606 rlineto
            -734 hlineto
            130 606 rlineto
            -229 -99 callsubr
            229 hlineto
            136 634 rlineto
            734 hlineto
            -136 -634 rlineto
            return
          </CharString>
          <CharString index="16">
            307 1443 -89 callsubr
            return
          </CharString>
          <CharString index="17">
            rmoveto
            43 callgsubr
            589 hlineto
            460 314 355 509 364 -230 215 -375 hvcurveto
            -265 -202 rmoveto
            222 hlineto
            273 144 -142 -265 -373 -236 -259 -329 hvcurveto
            -299 hlineto
            return
          </CharString>
          <CharString index="18">
            rlineto
            -227 -99 callsubr
            return
          </CharString>
          <CharString index="19">
            293 hmoveto
            234 1082 rlineto
            5 hlineto
            507 -1082 rlineto
            209 -56 callsubr
            -224 hlineto
            -234 -1082 rlineto
            -5 hlineto
            -508 1082 rlineto
            -208 -99 callsubr
            return
          </CharString>
          <CharString index="20">
            424 701 -24 rmoveto
            357 217 182 305 65 hvcurveto
            176 821 rlineto
            67 hlineto
            131 95 74 125 26 hvcurveto
            44 213 rlineto
            -185 hlineto
            -35 -170 rlineto
            -56 -12 -34 -27 -59 hhcurveto
            -233 hlineto
            -199 -931 rlineto
            -205 -45 -151 -119 -197 hhcurveto
            -211 -106 104 160 -6 hvcurveto
            -1 37 4 40 9 43 184 871 rcurveline
            -228 hlineto
            -185 -881 -9 -43 -5 -44 1 -42 rlinecurve
            -260 2 188 -197 335 hhcurveto
            return
          </CharString>
          <CharString index="21">
            rmoveto
            63 44 9 9 24 hvcurveto
            36 174 rlineto
            -3 -8 -23 -2 -17 hhcurveto
            -33 -22 18 28 hvcurveto
            -1 13 4 20 4 17 250 1171 rcurveline
            -215 hlineto
            -262 -1227 rlineto
            -6 -28 -3 -24 -22 vvcurveto
            -91 1 64 -62 100 hhcurveto
            return
          </CharString>
          <CharString index="22">
            120 569 692 874 rlineto
            -253 hlineto
            -507 -640 rlineto
            -4 hlineto
            -242 640 57 callsubr
            326 -855 -125 -588 rlineto
            return
          </CharString>
          <CharString index="23">
            1116 607 rmoveto
            100 -23 88 -42 69 vhcurveto
            4 37 vlineto
            89 77 62 101 22 hvcurveto
            45 212 93 callgsubr
            -29 -139 rlineto
            -64 -14 -31 -21 -75 -90 -95 57 -136 hhcurveto
            -316 -240 -275 -354 -282 177 -185 276 316 239 274 353 hvcurveto
            -790 -156 rmoveto
            246 142 191 193 146 91 -111 -173 -246 -142 -190 -192 -146 -92 110 173 vhcurveto
            return
          </CharString>
          <CharString index="24">
            rmoveto
            325 296 rlineto
            -231 92 callgsubr
          </CharString>
          <CharString index="25">
            rmoveto
            334 308 rlineto
            -196 hlineto
            -205 -192 rlineto
            -7 hlineto
            -123 192 rlineto
            -173 hlineto
            203 -308 rlineto
            endchar
          </CharString>
          <CharString index="26">
            -104 144 714 rmoveto
            207 hlineto
            110 52 89 62 117 hhcurveto
            155 90 -102 -162 -2 hvcurveto
            2 0 0 1 vvcurveto
            -429 hlineto
            -34 -165 rlineto
            444 hlineto
            -171 -33 -118 -120 -172 hhcurveto
            -123 -81 72 97 -8 hvcurveto
            -208 hlineto
            -202 7 140 -156 267 hhcurveto
            355 210 288 361 275 -173 172 -264 -245 -172 -139 -223 -71 hvcurveto
            return
          </CharString>
          <CharString index="27">
            rmoveto
            1 107 -57 79 -100 30 2 8 rcurveline
            115 22 87 104 2 115 rrcurveto
            161 2 -155 120 -225 hhcurveto
            -244 -170 -134 -220 -43 hvcurveto
            207 hlineto
            101 23 88 68 120 hhcurveto
            110 70 -57 -75 -1 hvcurveto
            -80 -1 -81 -59 -109 hhcurveto
            -148 hlineto
            -34 -162 rlineto
            148 hlineto
            114 64 -45 -78 -1 hvcurveto
            -94 -1 -95 -74 -132 hhcurveto
            -123 -90 78 98 -1 hvcurveto
            -206 hlineto
            -212 164 -150 243 263 191 148 201 3 vhcurveto
            return
          </CharString>
          <CharString index="28">
            -459 41 hmoveto
            214 hlineto
            126 594 rlineto
            177 39 90 93 168 hhcurveto
            52 57 -13 -13 28 hvcurveto
            43 208 rlineto
            13 -26 -46 12 -53 hhcurveto
            -129 -96 -63 -96 -63 hvcurveto
            -4 hlineto
            29 143 rlineto
            -205 hlineto
            return
          </CharString>
          <CharString index="29">
            rmoveto
            -167 hlineto
            -342 -307 rlineto
            195 hlineto
            213 192 rlineto
            7 hlineto
            131 -192 rlineto
            176 hlineto
            return
          </CharString>
          <CharString index="30" raw="1">
            f9effa04 f9d915fc 2606f716 f8f2320a
            f77606f7 1cf90d05 f82706f8 61fd2415
            f845f7d5 ef1dfb80 f790fc05 fc46fbd2
            fc0efc7a fc09f77f fb90f804 1ff8a1f9
            ea15fbfa fb6cfbb6 fbc7fb7a fb28f73c
            f79af7f9 f76cf7b6 f7c7f77a f728cc1d
            0b   
          </CharString>
          <CharString index="31">
            64 callsubr
            -367 -817 rlineto
            -5 hlineto
            -44 817 rlineto
            -210 hlineto
            -383 -817 rlineto
            -4 hlineto
            -31 817 rlineto
            -200 hlineto
            65 -1055 rlineto
            231 hlineto
            376 785 rlineto
            5 hlineto
            51 -785 121 callsubr
            return
          </CharString>
          <CharString index="32">
            rmoveto
            -190 -38 128 -114 212 hhcurveto
            209 150 115 189 40 hvcurveto
            -170 hlineto
            -105 -22 -90 -65 -106 hhcurveto
            -103 -62 65 105 21 hvcurveto
            endchar
          </CharString>
          <CharString index="33">
            385 1007 -20 rmoveto
            321 229 265 363 282 -175 186 -277 -263 -197 -184 -258 -68 hvcurveto
            -177 hlineto
            90 422 101 callgsubr
            -1056 77 callsubr
            98 456 rlineto
            191 -15 hlineto
            -282 5 173 -179 274 hhcurveto
            3 186 rmoveto
            -148 -90 113 170 251 143 189 186 148 91 -113 -170 -250 -144 -190 -186 hvcurveto
            return
          </CharString>
          <CharString index="34">
            92 245 -11 rmoveto
            260 140 139 254 162 hvcurveto
            682 1061 rlineto
            -250 hlineto
            -535 -867 rlineto
            -17 hlineto
            -172 867 57 callsubr
            248 -1118 rlineto
            -91 -73 -79 -38 -102 hhcurveto
            -46 -25 6 3 -9 hvcurveto
            -40 -203 rlineto
            -4 8 34 -9 49 hhcurveto
            return
          </CharString>
          <CharString index="35">
            rmoveto
            74 60 62 74 75 -60 61 -74 -73 -60 -61 -75 -74 60 -62 73 hvcurveto
            endchar
          </CharString>
          <CharString index="36">
            174 rmoveto
            -150 -97 110 157 235 133 209 208 147 88 -106 -174 -248 -143 -183 -186 hvcurveto
            -432 -523 rmoveto
            118 554 rlineto
            5 hlineto
            -131 41 128 -92 161 hhcurveto
            297 225 276 373 269 -145 173 -235 -136 -128 -72 -110 -67 hvcurveto
            -4 hlineto
            35 164 115 callsubr
            -298 -1404 rlineto
            return
          </CharString>
          <CharString index="37">
            -78 callsubr
            endchar
          </CharString>
          <CharString index="38">
            307 -51 callsubr
            return
          </CharString>
          <CharString index="39">
            rmoveto
            78 hlineto
            55 37 -28 -42 -50 -43 -36 -62 -64 -43 38 51 6 hvcurveto
            0 -173 vlineto
            -2 -12 -1 -8 -10 vvcurveto
            -128 110 -83 167 166 120 90 126 73 -45 58 -72 17 vhcurveto
            4 vlineto
            93 13 70 72 87 vvcurveto
            111 -105 79 -148 -147 -110 -79 -131 -26 vhcurveto
            169 hlineto
            40 12 40 26 47 hhcurveto
            54 37 -27 -41 -49 -41 -31 -67 hvcurveto
            -86 hlineto
            return
          </CharString>
          <CharString index="40">
            836 hlineto
            38 182 rlineto
            -556 hlineto
            1 5 703 713 33 155 rlineto
            -826 hlineto
            -38 -182 rlineto
            557 hlineto
            -2 -5 -716 -723 rlineto
            return
          </CharString>
          <CharString index="41">
            551 705 739 rmoveto
            172 116 -77 -159 -180 -152 -126 -201 hvcurveto
            -299 hlineto
            118 542 rlineto
            -385 -739 rmoveto
            580 hlineto
            323 247 208 311 261 -191 157 -282 hvcurveto
            -252 hlineto
            109 506 rlineto
            -227 hlineto
            1163 -1443 -72 callgsubr
            return
          </CharString>
          <CharString index="42" raw="1">
            15621df8 09fb83f7 90fc091f 8afb6215
            f77ef72a fb3bfb9a fbfafb6e fbb6fbcb
            fb7ffb2a f73cf79a f7f9f76f f7010a0b
          </CharString>
          <CharString index="43">
            rmoveto
            7 28 31 4 32 hhcurveto
            58 35 -25 -41 -48 -46 -38 -69 -17 hvcurveto
            49 -95 rlineto
            135 36 82 87 101 vvcurveto
            96 -79 62 -126 -33 -47 -7 -9 -23 vhcurveto
            endchar
          </CharString>
          <CharString index="44" raw="1">
            15f7d2f7 81f7a4f7 f8f7adfb 46f74f9b
            1d8ef74e 15fb272e f702f710 1df723f7
            4cf754f7 27e8fb02 fb41fb92 fb24fb4e
            fb531ffb bdf85515 6afb3505 f96106ab
            f735050b   
          </CharString>
          <CharString index="45">
            81 377 136 108 249 -485 rlineto
            237 hlineto
            -313 613 514 442 rlineto
            -264 hlineto
            -504 -427 rlineto
            -5 hlineto
            176 815 rlineto
            -216 -99 callsubr
            return
          </CharString>
          <CharString index="46">
            1080 hlineto
            40 204 rlineto
            -785 hlineto
            1 5 999 1073 32 161 rlineto
            -1036 hlineto
            -42 -204 rlineto
            745 hlineto
            -1 -5 -1001 -1073 rlineto
            return
          </CharString>
          <CharString index="47">
            rmoveto
            -168 hlineto
            -330 -288 rlineto
            197 hlineto
            202 174 rlineto
            6 hlineto
            127 -174 rlineto
            174 hlineto
            -126 373 rmoveto
            115 95 98 157 29 hvcurveto
            -132 hlineto
            -81 -18 -34 -44 -44 -79 -29 142 -136 hhcurveto
            -119 -92 -93 -160 -29 hvcurveto
            132 hlineto
            78 14 38 45 45 77 30 -142 137 hhcurveto
            endchar
          </CharString>
          <CharString index="48">
            rmoveto
            6 18 3 24 26 vvcurveto
            142 -116 102 -163 -212 -144 -124 -188 -42 vhcurveto
            146 hlineto
            113 27 92 73 111 hhcurveto
            96 59 -55 -88 -16 -4 -17 -4 -10 hvcurveto
            endchar
          </CharString>
          <CharString index="49" raw="1">
            fb48f8be f8a71524 48c7e8f7 07ead9f7
            231ff74e 063ffbee 05fb04fc a715f76b
            06c21dfc 3906fbb2 fb50fb2c fb7afb0f
            ce24f700 5e1ffc0a fc2605f7 9c06f7df
            f7fb058a 8b8b8b1f f71d060b 
          </CharString>
          <CharString index="50">
            177 hlineto
            23 106 rlineto
            85 108 callsubr
            -85 hlineto
            93 437 rlineto
            -268 hlineto
            -153 -176 -102 -120 -88 -121 -32 -170 rcurveline
            343 hlineto
            -152 147 rmoveto
            71 95 100 123 78 86 rrcurveto
            4 hlineto
            -67 -309 126 callgsubr
            endchar
          </CharString>
          <CharString index="51">
            hlineto
            -69 callsubr
            return
          </CharString>
          <CharString index="52">
            208 998 46 callsubr
            -662 -498 rmoveto
            106 63 -56 -89 -127 -99 -106 -153 hvcurveto
            -178 hlineto
            83 378 rlineto
            -335 -557 rmoveto
            410 hlineto
            292 196 186 252 172 -128 124 -212 hvcurveto
            -187 hlineto
            68 321 -7 callsubr
            return
          </CharString>
          <CharString index="53">
            437 324 378 486 return
          </CharString>
          <CharString index="54">
            643 726 rlineto
            11 hlineto
            -157 -726 62 callsubr
            -214 hlineto
            -643 -720 rlineto
            -11 hlineto
            157 720 rlineto
            -214 70 callsubr
            return
          </CharString>
          <CharString index="55">
            -20 639 -18 rmoveto
            320 199 308 336 281 -151 166 -234 -134 -127 -73 -106 -59 hvcurveto
            -4 hlineto
            117 549 rlineto
            -213 -99 callsubr
            205 hlineto
            44 211 rlineto
            6 hlineto
            -133 35 140 -96 163 hhcurveto
            -21 192 rmoveto
            -151 -101 110 157 241 138 203 200 152 86 -107 -171 -238 -129 -195 -195 hvcurveto
            return
          </CharString>
          <CharString index="56">
            1443 rlineto
            return
          </CharString>
          <CharString index="57">
            rmoveto
            3 9 111 383 1 7 rrcurveto
            325 hlineto
            -188 -877 62 callsubr
            -727 hlineto
            -4 -153 -544 -5 -17 vhcurveto
            -206 -58 -67 -92 -90 hhcurveto
            -20 -19 2 5 -15 hvcurveto
            -40 -198 rlineto
            -6 18 33 -6 27 hhcurveto
            218 106 124 365 103 hvcurveto
            endchar
          </CharString>
          <CharString index="58">
            265 1239 105 callgsubr
            41 204 rlineto
            -1131 39 callgsubr
            452 22 callsubr
            return
          </CharString>
          <CharString index="59">
            112 68 callsubr
            183 872 rlineto
            233 120 callgsubr
            -235 hlineto
            17 90 rlineto
            98 20 58 46 107 hhcurveto
            31 43 -5 -5 20 hvcurveto
            33 169 rlineto
            8 -42 -45 7 -55 hhcurveto
            -222 -119 -92 -207 -40 hvcurveto
            -21 -109 rlineto
            -169 hlineto
            -37 100 callsubr
            return
          </CharString>
          <CharString index="60">
            -69 callsubr
            -228 hlineto
            -127 -596 rlineto
            -62 -70 -133 -57 -165 hhcurveto
            -225 -77 145 199 42 hvcurveto
            79 371 rlineto
            -227 hlineto
            -78 -368 rlineto
            -319 -67 160 -238 333 hhcurveto
            148 127 40 65 93 hvcurveto
            14 99 callgsubr
            return
          </CharString>
          <CharString index="61">
            rmoveto
            125 callgsubr
            66 -53 52 -64 -65 -52 -52 -66 18 callgsubr
            66 -52 52 -65 41 callgsubr
            return
          </CharString>
          <CharString index="62">
            rmoveto
            179 122 118 164 115 -86 83 -111 -64 -49 -21 -36 -36 hvcurveto
            -4 hlineto
            47 140 rlineto
            317 hlineto
            32 148 rlineto
            -467 hlineto
            -116 -398 rlineto
            168 hlineto
            26 21 37 18 38 hhcurveto
            57 41 -36 -57 -66 -50 -49 -67 -61 -43 37 51 -2 hvcurveto
            1 -169 vlineto
            -1 -15 0 5 -7 vvcurveto
            -128 110 -93 157 vhcurveto
            endchar
          </CharString>
          <CharString index="63" raw="1">
            16f7a406 f887f877 05930623 fc77d71d
            f3f87705 9406f7ca fc7705f7 8106fbfe
            f8da8a4d f8ccf8ab 05fb9106 fc6ffc54
            058206eb f8547b0a 2bfc5405 8306fbb2
            f85405fb 7e06f7e1 fc978cc9 050b
          </CharString>
          <CharString index="64">
            rmoveto
            -141 305 rlineto
            -197 hlineto
            184 -305 rlineto
            490 hmoveto
            -141 305 rlineto
            -197 hlineto
            183 59 callsubr
          </CharString>
          <CharString index="65">
            1253 rmoveto
            -140 -647 rlineto
            -427 hlineto
            427 647 rlineto
            -129 -1253 rmoveto
            871 hlineto
            40 204 rlineto
            -652 hlineto
            95 425 rlineto
            615 hlineto
            39 195 rlineto
            -615 hlineto
            91 415 rlineto
            652 hlineto
            42 204 rlineto
            -1164 hlineto
            -938 -1443 116 callgsubr
            278 417 rlineto
            501 hlineto
            return
          </CharString>
          <CharString index="66">
            rmoveto
            181 317 rlineto
            -240 hlineto
            -96 -317 rlineto
            446 3 rmoveto
            67 53 55 66 67 -53 55 -68 -66 -54 -55 -67 1 hvcurveto
            -66 53 -55 67 vhcurveto
            -604 hmoveto
            68 52 55 66 67 -53 55 -68 -66 -54 -55 -67 1 hvcurveto
            -66 54 -55 66 vhcurveto
            endchar
          </CharString>
          <CharString index="67">
            rmoveto
            223 350 rlineto
            -199 hlineto
            -189 -350 rlineto
            endchar
          </CharString>
          <CharString index="68">
            -122 859 1055 rmoveto
            7 -65 5 -53 -50 vvcurveto
            -425 -151 -289 -228 -119 -55 59 103 46 4 43 26 113 vhcurveto
            108 518 rlineto
            -210 hlineto
            -124 -586 rlineto
            -10 -54 -9 -58 -55 vvcurveto
            -198 134 -124 229 380 237 347 546 68 -6 66 -11 48 vhcurveto
            return
          </CharString>
          <CharString index="69">
            296 743 -23 rmoveto
            438 304 360 522 378 -222 229 -367 -290 -241 -156 -255 -102 hvcurveto
            239 hlineto
            134 79 133 69 173 hhcurveto
            236 141 -160 -260 -5 hvcurveto
            -20 -3 -27 -5 -32 vhcurveto
            -1065 hlineto
            -15 -61 -7 -65 -68 vvcurveto
            -366 217 -222 362 vhcurveto
            10 207 rmoveto
            -223 -134 132 219 28 0 3 1 9 hvcurveto
            820 hlineto
            -240 -62 -179 -151 -223 hhcurveto
            return
          </CharString>
          <CharString index="70">
            -46 callsubr
            198 521 -76 callgsubr
          </CharString>
          <CharString index="71">
            rmoveto
            -674 hlineto
            265 1237 -89 callsubr
            902 hlineto
            return
          </CharString>
          <CharString index="72">
            363 725 rmoveto
            101 42 94 67 128 hhcurveto
            150 92 -112 -167 -12 0 -11 -1 -12 hvcurveto
            -748 hlineto
            -8 -48 -3 -57 -47 vvcurveto
            -275 168 -172 271 312 219 277 351 275 -157 193 -291 -234 -186 -149 -202 -54 vhcurveto
            394 -564 rmoveto
            -165 -67 109 123 9 0 11 1 8 hvcurveto
            524 hlineto
            -149 -40 -105 -111 -148 hhcurveto
            return
          </CharString>
          <CharString index="73">
            17 callsubr
            548 -296 17 callsubr
            endchar
          </CharString>
          <CharString index="74">
            rmoveto
            62 50 51 64 63 -50 51 -62 -63 -50 -51 -63 -64 50 -51 63 hvcurveto
            366 hmoveto
            63 50 51 64 63 -50 51 -63 -63 -49 -51 -63 -64 49 -51 63 hvcurveto
            endchar
          </CharString>
          <CharString index="75">
            -743 51 63 callgsubr
            -215 hlineto
            return
          </CharString>
          <CharString index="76">
            417 rmoveto
            148 -90 121 -148 51 vhcurveto
            1 5 rlineto
            195 41 132 148 178 vvcurveto
            207 -198 150 -272 -291 -223 -177 -230 -121 71 -103 119 -50 vhcurveto
            -1 -4 rlineto
            -230 -38 -166 -173 -204 vvcurveto
            -229 220 -163 310 328 243 188 255 vhcurveto
            -528 241 rmoveto
            177 124 -93 -133 -153 -143 -115 -189 -182 -125 93 134 152 144 115 194 hvcurveto
            -148 381 rmoveto
            137 123 104 161 151 104 -82 -117 -136 -126 -105 -162 -147 -104 83 116 vhcurveto
            endchar
          </CharString>
          <CharString index="77">
            -274 92 callsubr
            97 459 rlineto
            -382 hlineto
            -40 -185 rlineto
            181 hlineto
            return
          </CharString>
          <CharString index="78">
            rmoveto
            157 -96 -148 91 -155 hhcurveto
            -275 -200 -193 -265 -217 160 -154 228 173 144 81 167 122 hvcurveto
            -157 96 148 -91 155 hhcurveto
            275 201 193 265 217 -161 154 -228 -173 -143 -81 -167 -123 hvcurveto
            -411 50 rmoveto
            107 112 -81 -136 72 hvcurveto
            -145 -95 -119 -74 -129 hhcurveto
            -118 -90 84 106 142 111 104 149 hvcurveto
            776 -433 rmoveto
            -108 -111 81 136 -72 hvcurveto
            145 95 119 74 129 hhcurveto
            118 90 -84 -106 -142 -111 -104 -149 hvcurveto
            endchar
          </CharString>
          <CharString index="79" raw="1">
            15f7b6f7 87f732f7 91f01ffb 8006fb18
            3dfb1c44 fb421bfb 7efb24f7 38f79692
            1fad8da8 8e9c1efa bf0699c5 94d2d21a
            f802fb67 f769fbfe fc3cfbd5 fc0ffc8b
            fc0ef770 fb79f800 1efc8ef9 5915a8f7
            51052d06 3964afd6 bca1c7b8 d51ffb4b
            0659456f 393d1afb 31f7002b f7481ef7
            adf74e15 f77eccf7 4ef730f7 691bf774
            f71bfb18 fb6e708a 878a821f 0e
          </CharString>
          <CharString index="80">
            -1443 rlineto
            return
          </CharString>
          <CharString index="81">
            31 876 645 rmoveto
            38 193 rlineto
            -140 hlineto
            -166 -108 89 132 2 hvcurveto
            127 2 126 90 168 hhcurveto
            176 110 -84 -135 -6 hvcurveto
            203 hlineto
            241 35 -197 169 -310 hhcurveto
            -304 -214 -165 -244 -4 hvcurveto
            -3 -141 81 -117 123 -35 -1 -5 rcurveline
            -227 -20 -155 -153 -2 -206 rrcurveto
            -242 -3 203 -163 310 hhcurveto
            318 204 156 270 43 hvcurveto
            -222 hlineto
            -146 -28 -118 -84 -187 hhcurveto
            -176 -119 96 133 1 hvcurveto
            154 2 132 90 223 hhcurveto
            return
          </CharString>
          <CharString index="82" raw="1">
            5c0a0e   
          </CharString>
          <CharString index="83">
            679 rmoveto
            -165 -115 114 163 5 hvcurveto
            182 5 132 130 179 hhcurveto
            175 116 -127 -165 -5 hvcurveto
            -168 -5 -144 -129 -178 hhcurveto
            -498 258 rmoveto
            -254 -6 188 -189 256 hhcurveto
            152 128 63 123 92 hvcurveto
            5 -1 rlineto
            -303 -56 -172 -200 -207 hhcurveto
            -142 -102 80 128 -20 hvcurveto
            -224 hlineto
            -240 16 194 -168 265 hhcurveto
            397 270 397 502 15 hvcurveto
            465 13 -296 127 -211 hhcurveto
            -315 -230 -219 -311 -10 hvcurveto
            endchar
          </CharString>
          <CharString index="84">
            -175 126 -134 165 79 81 33 50 46 vhcurveto
            17 hlineto
            -153 -35 -159 -108 -180 hhcurveto
            -10 -12 0 1 -9 hvcurveto
            -20 -118 rlineto
            -2 22 18 0 14 hhcurveto
            306 223 211 314 245 -143 157 -203 -186 -140 -137 -184 hvcurveto
            return
          </CharString>
          <CharString index="85">
            318 1476 622 rmoveto
            179 -25 137 -44 117 vhcurveto
            -222 hlineto
            46 -123 33 -149 -150 vvcurveto
            -275 -103 -185 -149 -94 -50 61 111 28 4 26 7 37 vhcurveto
            66 318 rlineto
            -203 hlineto
            -78 -365 rlineto
            -134 -29 -78 -82 -106 hhcurveto
            -91 -57 84 120 246 109 240 202 192 hvcurveto
            -224 hlineto
            -186 -167 -113 -267 -251 vvcurveto
            -247 114 -143 213 140 101 88 146 69 vhcurveto
            3 hlineto
            -165 22 106 -69 143 hhcurveto
            266 208 280 362 hvcurveto
            return
          </CharString>
          <CharString index="86">
            338 956 -421 rmoveto
            28 136 rlineto
            -8 -18 -26 -4 -29 hhcurveto
            -62 -35 27 47 93 155 107 107 66 hvcurveto
            266 154 197 280 364 vvcurveto
            373 -239 252 -373 -437 -322 -378 -486 -373 239 -252 371 15 15 1 1 14 vhcurveto
            -5 vlineto
            -129 -77 -61 -85 -91 vvcurveto
            -99 82 -65 119 52 50 9 13 21 vhcurveto
            354 1252 rmoveto
            -358 -219 -290 -310 -234 -150 168 262 357 218 290 311 233 151 65 callgsubr
            return
          </CharString>
          <CharString index="87">
            87 callsubr
            -139 -655 rlineto
            -136 -29 -111 -93 -113 hhcurveto
            -108 -62 106 callgsubr
            -211 hlineto
            -139 -653 rlineto
            -145 -31 -109 -86 -113 hhcurveto
            -107 -63 106 callgsubr
            -214 hlineto
            -140 -663 rlineto
            -9 -43 -5 -42 -38 vvcurveto
            -169 126 -120 171 167 115 89 99 67 vhcurveto
            4 hlineto
            -100 26 101 -88 148 hhcurveto
            134 119 84 105 53 hvcurveto
            5 hlineto
            -35 -169 -8 callsubr
            endchar
          </CharString>
          <CharString index="88">
            216 -24 callgsubr
            -216 hlineto
            167 149 rmoveto
            70 56 57 72 72 -56 57 -70 -70 -56 -57 -72 -72 56 -57 70 hvcurveto
            return
          </CharString>
          <CharString index="89">
            hvcurveto
            -180 hlineto
            -98 -15 -44 -51 -65 -108 -51 185 -191 hhcurveto
            -160 -121 -136 -201 -22 hvcurveto
            182 hlineto
            97 15 42 49 65 108 52 -186 190 hhcurveto
            return
          </CharString>
          <CharString index="90">
            rmoveto
            -42 -186 rlineto
            -7 -36 -5 -37 -35 vvcurveto
            -188 150 -71 152 vhcurveto
            66 hlineto
            34 171 rlineto
            -44 hlineto
            -111 -36 53 79 27 5 30 6 31 hvcurveto
            46 209 rlineto
            7 32 5 29 26 vvcurveto
            94 -50 60 -138 26 vhcurveto
            3 17 153 14 99 70 33 154 rlinecurve
            52 239 rlineto
            156 33 61 61 135 hhcurveto
            44 hlineto
            35 175 rlineto
            -66 hlineto
            -243 -141 -92 -251 -53 hvcurveto
            -47 -209 rlineto
            -159 -34 -73 -52 -156 hhcurveto
            -46 -228 rlineto
            125 59 -28 -94 -25 -4 -29 -7 -33 hvcurveto
            endchar
          </CharString>
          <CharString index="91">
            rlineto
            -214 hlineto
            return
          </CharString>
          <CharString index="92">
            685 rmoveto
            -167 -124 122 164 1 hvcurveto
            174 140 136 179 169 124 -121 -163 -1 vhcurveto
            -173 -1 -143 -139 -177 hhcurveto
            -510 262 rmoveto
            -248 177 -181 241 87 68 23 47 50 vhcurveto
            8 -3 -17 -24 -27 -31 -20 -22 rlinecurve
            -22 -32 -484 -452 -27 -24 rrcurveto
            289 hlineto
            17 20 368 358 13 17 rrcurveto
            223 229 102 196 194 vvcurveto
            271 -203 193 -288 -314 -241 -230 -301 vhcurveto
            endchar
          </CharString>
          <CharString index="93">
            rmoveto
            191 hlineto
            32 159 rlineto
            -190 hlineto
            40 192 rlineto
            -161 hlineto
            -41 -192 126 callgsubr
            -33 -159 rlineto
            187 hlineto
            -41 -193 rlineto
            162 hlineto
            endchar
          </CharString>
          <CharString index="94">
            rmoveto
            35 178 rlineto
            -682 hlineto
            -223 -1055 rlineto
            215 78 callsubr
            return
          </CharString>
          <CharString index="95">
            -226 600 901 rmoveto
            102 69 -55 -70 -70 -60 -46 -124 -26 hvcurveto
            -171 -37 rlineto
            -230 -49 -112 -104 -164 vvcurveto
            -182 145 -118 239 245 164 120 217 66 vhcurveto
            -220 hlineto
            -98 -36 -94 -61 -127 hhcurveto
            -102 -68 53 70 76 54 43 136 31 hvcurveto
            187 41 rlineto
            209 47 111 109 158 vvcurveto
            171 -148 119 -229 -243 -167 -125 -206 -43 vhcurveto
            216 hlineto
            97 30 83 59 118 hhcurveto
            endchar
          </CharString>
          <CharString index="96">
            216 -56 callsubr
            -216 hlineto
            return
          </CharString>
          <CharString index="97">
            -86 callsubr
            endchar
          </CharString>
          <CharString index="98">
            238 1372 435 rmoveto
            -224 hlineto
            -146 -62 -143 -115 -189 hhcurveto
            -245 -132 175 288 29 hvcurveto
            614 hlineto
            39 196 rlineto
            -623 hlineto
            260 71 187 175 238 hhcurveto
            185 139 -110 -175 9 hvcurveto
            225 hlineto
            1 0 14 4 vvcurveto
            282 -6 -244 194 -287 hhcurveto
            -410 -277 -297 -424 -69 hvcurveto
            -504 -93 232 -288 394 hhcurveto
            310 244 181 289 88 hvcurveto
            return
          </CharString>
          <CharString index="99">
            rlineto
            205 hlineto
            return
          </CharString>
          <CharString index="100">
            rlineto
            -215 hlineto
            return
          </CharString>
          <CharString index="101">
            rmoveto
            115 95 89 149 25 hvcurveto
            -131 hlineto
            -73 -15 -34 -35 -44 -81 -33 124 -132 hhcurveto
            -119 -91 -84 -152 -26 hvcurveto
            131 hlineto
            70 11 37 36 45 80 33 -124 134 hhcurveto
            -209 -311 -40 callgsubr
          </CharString>
          <CharString index="102">
            hlineto
            131 -192 rlineto
            176 hlineto
            endchar
          </CharString>
          <CharString index="103">
            1528 -68 callgsubr
          </CharString>
          <CharString index="104">
            -131 1022 341 rmoveto
            -205 hlineto
            -104 -41 -95 -69 -120 hhcurveto
            -148 -89 107 168 7 0 7 1 7 hvcurveto
            429 hlineto
            33 164 rlineto
            -439 hlineto
            154 43 114 106 146 hhcurveto
            134 80 -77 -98 15 hvcurveto
            206 hlineto
            202 -11 -146 161 -274 hhcurveto
            -322 -224 -276 -355 -275 151 -190 296 227 186 148 213 53 hvcurveto
            return
          </CharString>
          <CharString index="105">
            73 58 60 77 76 -58 60 -73 -73 -58 -60 -76 -77 58 -60 73 hvcurveto
            return
          </CharString>
          <CharString index="106">
            231 rlineto
            -185 hlineto
            152 -231 rlineto
            return
          </CharString>
          <CharString index="107" raw="1">
            f7c615fa 08f91a70 f74dfe09 fd1c05f8
            1bfc9915 f819f7a6 f820f8c7 f7e0fb51
            f764fbc1 fc16fba8 fc25fcc4 fbdff750
            fb63f7c1 1ffb98f8 a915f83d f751f7ea
            f780f738 f2fb15fb 62fc3ffb 4efbe8fb
            80fb3a23 f714f763 1e0e 
          </CharString>
          <CharString index="108" raw="1">
            50f8c8f7 3715fb28 2df706f7 42f790f7
            22f752f7 59f728e9 fb07fb42 fb8ffb23
            fb52fb58 1feffa25 15fbd2fb 82fba5fb
            f8fbadf7 46fb4ef7 a8f7d1f7 82f7a4f7
            f8f7aefb 46f74efb a71ffcf4 fe8715ea
            2afa8efa 932cec05 0b 
          </CharString>
          <CharString index="109">
            rmoveto
            51 callsubr
            -171 hmoveto
            51 callsubr
            endchar
          </CharString>
          <CharString index="110" raw="1">
            f767fac6 1c046f15 b0f74605 fe0f0667
            fb4605b9 1cfb9115 f8d806f7 d7f78af7
            62f7c8f7 93fb54f7 2efbae1f fb9106f7
            11f8e305 fb770656 1cfadb15 f708f8a5
            05f78a06 f740f709 41fb2ffb 44fb2bfb
            10fb5d1f 0e  
          </CharString>
          <CharString index="111">
            136 859 -103 callsubr
            -87 1426 -57 callgsubr
            return
          </CharString>
          <CharString index="112">
            rmoveto
            33 160 rlineto
            -530 hlineto
            -32 -160 rlineto
            583 259 rmoveto
            33 160 rlineto
            -530 hlineto
            -33 -160 rlineto
            endchar
          </CharString>
          <CharString index="113">
            rmoveto
            -140 293 rlineto
            -182 hlineto
            168 -293 rlineto
            return
          </CharString>
          <CharString index="114" raw="1">
            f77fd1f9 0c15f92c 06b4f760 05fd2c06
            f79df8f3 a70a  
          </CharString>
          <CharString index="115">
            -98 callsubr
            endchar
          </CharString>
          <CharString index="116">
            hmoveto
            216 hlineto
            61 279 rlineto
            199 hlineto
            40 200 rlineto
            -199 hlineto
            206 964 rlineto
            -339 hlineto
            -337 -381 -292 -330 -177 -235 -35 -218 rcurveline
            717 hlineto
            -463 200 rmoveto
            215 269 268 301 187 206 rrcurveto
            4 hlineto
            -169 -781 rlineto
            -506 hlineto
            endchar
          </CharString>
          <CharString index="117">
            170 1158 hmoveto
            -47 callsubr
            return
          </CharString>
          <CharString index="118">
            -285 rmoveto
            205 hlineto
            88 callgsubr
            return
          </CharString>
          <CharString index="119">
            rmoveto
            27 -79 14 -88 -84 vvcurveto
            -225 -100 -219 -135 -131 vhcurveto
            187 hlineto
            150 144 85 206 210 vvcurveto
            99 -22 99 -36 68 vhcurveto
            endchar
          </CharString>
          <CharString index="120">
            rmoveto
            176 hlineto
            312 250 rlineto
            -202 hlineto
            -184 -146 rlineto
            -9 hlineto
            -123 146 rlineto
            -179 hlineto
            76 -309 rmoveto
            -64 -50 -52 -65 -64 114 callgsubr
            64 65 -50 52 -64 hvcurveto
            370 hmoveto
            -63 -50 -52 -65 -64 50 -52 63 65 50 52 64 65 -50 52 -65 hvcurveto
            endchar
          </CharString>
          <CharString index="121">
            hmoveto
            129 598 rlineto
            614 hlineto
            40 198 rlineto
            -614 hlineto
            97 443 rlineto
            671 hlineto
            42 204 rlineto
            -902 -99 callsubr
            return
          </CharString>
          <CharString index="122">
            719 hmoveto
            820 1443 75 callsubr
            -637 -1160 rlineto
            -5 hlineto
            -152 1160 rlineto
            -228 hlineto
            209 -27 callsubr
            return
          </CharString>
          <CharString index="123">
            rmoveto
            71 55 57 70 69 -55 57 -71 -70 -56 -57 -69 -70 56 -57 70 hvcurveto
            402 481 rmoveto
            -654 hlineto
            -28 99 callsubr
            endchar
          </CharString>
          <CharString index="124">
            rmoveto
            168 -37 callgsubr
            return
          </CharString>
          <CharString index="125">
            rmoveto
            28 132 rlineto
            -655 90 callsubr
            return
          </CharString>
          <CharString index="126">
            -70 callgsubr
            endchar
          </CharString>
          <CharString index="127">
            -181 172 1056 rmoveto
            152 -1056 rlineto
            238 hlineto
            593 1056 rlineto
            -233 hlineto
            -435 -824 rlineto
            -4 hlineto
            -98 824 rlineto
            return
          </CharString>
          <CharString index="128">
            203 hlineto
            393 545 30 148 rlineto
            -520 hlineto
            -30 -148 rlineto
            322 -3 hlineto
            endchar
          </CharString>
          <CharString index="129">
            hlineto
            -266 -1239 rlineto
            return
          </CharString>
          <CharString index="130">
            hmoveto
            154 721 rlineto
            10 hlineto
            167 -678 rlineto
            148 hlineto
            463 678 rlineto
            10 hlineto
            -153 -721 rlineto
            210 -24 callgsubr
            -270 hlineto
            -505 -749 rlineto
            -9 hlineto
            -167 749 rlineto
            -267 70 callsubr
            endchar
          </CharString>
          <CharString index="131">
            2097 rmoveto
            -4 -18 -2 -18 -17 vvcurveto
            -123 107 callsubr
            101 153 32 vhcurveto
            -165 hlineto
            -74 -16 -70 -46 return
          </CharString>
          <CharString index="132">
            52 callgsubr
            -414 rlineto
            -57 -63 -93 -36 -90 hhcurveto
            -133 -54 76 144 31 hvcurveto
            61 287 83 callgsubr
            -59 -284 rlineto
            -251 -52 117 -164 228 hhcurveto
            105 88 87 callgsubr
            -94 -448 rlineto
            return
          </CharString>
          <CharString index="133">
            1055 rmoveto
            -864 hlineto
            -35 -178 rlineto
            324 hlineto
            -188 -877 rlineto
            216 hlineto
            187 877 rlineto
            324 hlineto
            endchar
          </CharString>
          <CharString index="134">
            rmoveto
            36 182 rlineto
            -961 hlineto
            -36 -182 rlineto
            693 563 rmoveto
            388 hlineto
            35 174 rlineto
            -388 hlineto
            59 266 93 callgsubr
            -59 -266 rlineto
            -387 hlineto
            -35 -174 rlineto
            387 hlineto
            -58 -267 rlineto
            187 hlineto
            endchar
          </CharString>
          <CharString index="135">
            -90 callsubr
            endchar
          </CharString>
          <CharString index="136">
            18 callsubr
            216 262 rmoveto
            63 51 52 65 65 -51 51 -63 -64 -51 -51 -65 -65 51 -52 64 hvcurveto
            370 hmoveto
            64 51 52 65 65 -51 51 -64 -63 -51 -51 -65 -65 51 -52 63 hvcurveto
            endchar
          </CharString>
          <CharString index="137">
            hmoveto
            216 hlineto
            61 279 rlineto
            188 hlineto
            41 202 rlineto
            -190 hlineto
            84 390 -16 callsubr
            -83 -388 rlineto
            -440 hlineto
            2 7 679 953 rlineto
            -237 hlineto
            -689 -960 -41 -204 rlineto
            684 hlineto
            endchar
          </CharString>
          <CharString index="138">
            hmoveto
            -54 callgsubr
            endchar
          </CharString>
          <CharString index="139" raw="1">
            291d0e   
          </CharString>
          <CharString index="140">
            rmoveto
            168 hlineto
            331 293 rlineto
            -198 hlineto
            -202 -179 rlineto
            -7 hlineto
            -126 179 rlineto
            -173 hlineto
            387 96 rmoveto
            74 59 59 75 75 -59 60 -74 -74 -59 -60 -75 -75 59 -59 74 hvcurveto
            endchar
          </CharString>
          <CharString index="141">
            -100 1012 206 -36 callsubr
            -517 -445 -102 callgsubr
            return
          </CharString>
          <CharString index="142">
            rmoveto
            154 124 -231 305 362 291 -110 152 -362 -290 -233 301 -153 -125 233 -305 -362 -291 110 -151 362 290 rlineto
            endchar
          </CharString>
          <CharString index="143">
            rmoveto
            -54 156 -36 214 264 vvcurveto
            -1 439 172 392 291 287 rrcurveto
            -234 hlineto
            -267 -263 -180 -398 -429 vvcurveto
            -238 47 -278 68 -146 vhcurveto
            endchar
          </CharString>
          <CharString index="144">
            -292 rmoveto
            -1 -9 -18 -1 -17 hhcurveto
            -81 -44 33 62 73 52 73 135 69 hvcurveto
            -136 30 rlineto
            -141 -67 -94 -111 -113 vvcurveto
            -121 89 -76 148 37 33 4 7 18 vhcurveto
            endchar
          </CharString>
          <CharString index="145">
            64 callgsubr
            -202 -535 rlineto
            return
          </CharString>
          <CharString index="146" raw="1">
            15fb5806 fd30fee6 05f75706 f938f79a
            15b3f759 05fe7a06 63fb5905 fad4f83f
            15b1f759 05fe7906 64fb5905 0e
          </CharString>
          <CharString index="147">
            71 callsubr
            57 callgsubr
            return
          </CharString>
          <CharString index="148">
            rmoveto
            42 186 rlineto
            -1021 hlineto
            -42 -186 rlineto
            117 516 rmoveto
            -43 -195 1091 301 40 181 -950 304 -44 -195 677 -186 -6 -22 rlineto
            endchar
          </CharString>
          <CharString index="149">
            71 callsubr
            -105 -495 rlineto
            147 hlineto
            155 495 rlineto
            return
          </CharString>
          <CharString index="150">
            rlineto
            -224 hlineto
            return
          </CharString>
          <CharString index="151">
            265 67 callsubr
            665 hlineto
            42 204 rlineto
            -892 -99 callsubr
            return
          </CharString>
          <CharString index="152">
            rmoveto
            -85 callsubr
            endchar
          </CharString>
          <CharString index="153">
            63 callgsubr
            -216 hlineto
            return
          </CharString>
          <CharString index="154">
            248 535 rlineto
            -218 hlineto
            return
          </CharString>
          <CharString index="155">
            hmoveto
            -69 callsubr
            -1170 -99 callsubr
            226 98 callgsubr
            719 98 callsubr
            endchar
          </CharString>
          <CharString index="156">
            rlineto
            207 hlineto
            return
          </CharString>
          <CharString index="157">
            rmoveto
            33 159 rlineto
            -536 hlineto
            -32 -159 rlineto
            endchar
          </CharString>
          <CharString index="158">
            325 296 rlineto
            -225 hlineto
            -285 -296 rlineto
            return
          </CharString>
          <CharString index="159">
            1715 rmoveto
            -4 -19 -2 -18 -16 vvcurveto
            -124 107 callsubr
            102 153 32 vhcurveto
            -165 hlineto
            -74 -16 -69 -47 return
          </CharString>
          <CharString index="160">
            rmoveto
            374 1752 rlineto
            -478 hlineto
            -35 -173 rlineto
            270 hlineto
            -304 -1405 rlineto
            -270 hlineto
            -35 -174 rlineto
            endchar
          </CharString>
          <CharString index="161">
            -1 callsubr
            endchar
          </CharString>
          <CharString index="162">
            rmoveto
            41 200 rlineto
            -998 hlineto
            -41 -200 rlineto
            1086 423 rmoveto
            40 201 rlineto
            -997 hlineto
            -41 -201 rlineto
            endchar
          </CharString>
          <CharString index="163">
            25 rmoveto
            -197 hlineto
            -66 -310 rlineto
            197 hlineto
            return
          </CharString>
          <CharString index="164">
            rlineto
            -235 hlineto
            return
          </CharString>
          <CharString index="165">
            -285 rmoveto
            206 hlineto
            207 432 11 57 rlineto
            -412 hlineto
            return
          </CharString>
          <CharString index="166">
            -305 rlineto
            endchar
          </CharString>
          <CharString index="167">
            rmoveto
            595 -350 -3 -11 -749 -357 -49 -241 1016 501 36 182 -802 505 rlineto
            endchar
          </CharString>
          <CharString index="168">
            hmoveto
            249 hlineto
            893 1240 42 203 rlineto
            -958 hlineto
            -41 -199 rlineto
            719 hlineto
            -1 -7 rlineto
            endchar
          </CharString>
          <CharString index="169">
            rlineto
            214 -24 callgsubr
            return
          </CharString>
          <CharString index="170">
            hvcurveto
            -276 -538 rmoveto
            164 hlineto
            return
          </CharString>
          <CharString index="171">
            1055 120 callsubr
            return
          </CharString>
          <CharString index="172">
            97 217 47 hvcurveto
            9 40 -212 24 -8 -35 rlineto
            -119 -26 -53 -46 -105 hhcurveto
            -4 -24 0 1 -2 hvcurveto
            return
          </CharString>
          <CharString index="173">
            -100 301 hmoveto
            44 callsubr
            return
          </CharString>
          <CharString index="174">
            1239 rlineto
            return
          </CharString>
          <CharString index="175">
            hmoveto
            215 hlineto
            return
          </CharString>
          <CharString index="176" raw="1">
            b70a0e   
          </CharString>
          <CharString index="177">
            hlineto
            32 callgsubr
            return
          </CharString>
          <CharString index="178">
            1443 rmoveto
            return
          </CharString>
          <CharString index="179" raw="1">
            fbb115f7 6206f762 f84497c4 05fc30b2
            1df73c06 0b  
          </CharString>
          <CharString index="180" raw="1">
            fba615f7 5c06f74e f82497c6 050b
          </CharString>
          <CharString index="181">
            18 2 18 17 vvcurveto
            123 return
          </CharString>
          <CharString index="182">
            rlineto
            -252 hlineto
            return
          </CharString>
          <CharString index="183">
            -686 301 85 callgsubr
          </CharString>
          <CharString index="184">
            rlineto
            215 hlineto
            return
          </CharString>
          <CharString index="185">
            hlineto
            188 877 rlineto
            return
          </CharString>
          <CharString index="186">
            hlineto
            4 84 callsubr
            return
          </CharString>
          <CharString index="187">
            rmoveto
            -983 hlineto
            -39 -196 rlineto
            797 hlineto
            -82 -387 rlineto
            186 hlineto
            endchar
          </CharString>
          <CharString index="188">
            rlineto
            -229 hlineto
            return
          </CharString>
          <CharString index="189">
            hlineto
            41 199 rlineto
            return
          </CharString>
          <CharString index="190">
            rlineto
            222 hlineto
            return
          </CharString>
          <CharString index="191">
            74 callsubr
            -100 70 callgsubr
            return
          </CharString>
          <CharString index="192">
            rmoveto
            865 1752 rlineto
            -195 hlineto
            -865 -1752 rlineto
            endchar
          </CharString>
          <CharString index="193">
            -65 -52 -52 -65 -65 52 -52 65 hvcurveto
            endchar
          </CharString>
          <CharString index="194">
            1055 rmoveto
            -214 hlineto
            return
          </CharString>
          <CharString index="195">
            71 callsubr
            -252 -535 rlineto
            219 hlineto
            205 535 rlineto
            return
          </CharString>
          <CharString index="196">
            97 callgsubr
            39 192 rmoveto
            1847 hlineto
            return
          </CharString>
          <CharString index="197">
            hlineto
            -27 -132 rlineto
            return
          </CharString>
          <CharString index="198">
            rmoveto
            27 136 rlineto
            -8 -20 -26 -4 -27 hhcurveto
            -59 -37 27 46 68 return
          </CharString>
          <CharString index="199">
            rmoveto
            203 hlineto
            return
          </CharString>
          <CharString index="200">
            1618 18 callsubr
            return
          </CharString>
          <CharString index="201" raw="1">
            79fb08fc b005f709 06f708f8 b0969d0b
          </CharString>
          <CharString index="202">
            rmoveto
            2048 82 callsubr
            -2048 hlineto
            endchar
          </CharString>
          <CharString index="203">
            rmoveto
            65 52 52 65 65 -52 52 -65 return
          </CharString>
          <CharString index="204">
            -33 rlineto
            -124 -26 -48 -39 return
          </CharString>
          <CharString index="205">
            hlineto
            -265 -1238 rlineto
            return
          </CharString>
          <CharString index="206">
            -132 rlineto
            654 hlineto
            return
          </CharString>
          <CharString index="207">
            -179 rlineto
            172 hlineto
            return
          </CharString>
          <CharString index="208">
            455 rlineto
            -163 hlineto
            return
          </CharString>
          <CharString index="209">
            rmoveto
            41 207 rlineto
            -1041 hlineto
            -41 -207 rlineto
            endchar
          </CharString>
          <CharString index="210">
            -11 callsubr
            endchar
          </CharString>
          <CharString index="211">
            vhcurveto
            -147 hlineto
            return
          </CharString>
          <CharString index="212">
            88 callgsubr
            -180 119 callgsubr
            return
          </CharString>
          <CharString index="213">
            47 93 hhcurveto
            82 48 -36 -59 -8 -1 -8 -2 -9 hvcurveto
            return
          </CharString>
          <CharString index="214">
            100 -78 171 195 144 return
          </CharString>
          <CharString index="215">
            hlineto
            124 callsubr
            return
          </CharString>
          <CharString index="216">
            290 311 hvcurveto
            return
          </CharString>
          <CharString index="217">
            hvcurveto
            1 5 rlineto
            return
          </CharString>
          <CharString index="218">
            rmoveto
            614 353 -467 353 rlineto
            endchar
          </CharString>
          <CharString index="219">
            rmoveto
            147 707 -613 -354 rlineto
            endchar
          </CharString>
          <CharString index="220">
            175 -104 107 -170 return
          </CharString>
          <CharString index="221">
            hlineto
            187 876 rlineto
            return
          </CharString>
          <CharString index="222">
            rlineto
            -209 hlineto
            return
          </CharString>
          <CharString index="223">
            37 181 rlineto
            -1053 hlineto
            -37 -181 rlineto
            return
          </CharString>
          <CharString index="224">
            101 callsubr
            186 876 rlineto
            return
          </CharString>
          <CharString index="225">
            rmoveto
            -1 4 40 -2 11 hhcurveto
            return
          </CharString>
          <CharString index="226">
            -369 rmoveto
            -3 8 return
          </CharString>
          <CharString index="227">
            rmoveto
            -216 hlineto
            return
          </CharString>
          <CharString index="228">
            rlineto
            225 hlineto
            return
          </CharString>
          <CharString index="229">
            232 325 223 -134 146 return
          </CharString>
          <CharString index="230">
            rmoveto
            174 hlineto
            return
          </CharString>
          <CharString index="231">
            31 150 rlineto
            return
          </CharString>
          <CharString index="232">
            rlineto
            250 hlineto
            return
          </CharString>
        <CharString name=".notdef">
          856 -70 -494 rmoveto
          1847 89 callsubr
          54 247 rlineto
          -1847 hlineto
          39 193 rmoveto
          1847 97 callgsubr
          38 193 rmoveto
          1848 hlineto
          54 246 rlineto
          -1847 hlineto
          38 193 rmoveto
          1848 89 callsubr
          55 247 rlineto
          -1848 hlineto
          endchar
        </CharString>
        <CharString name=".null">
          endchar
        </CharString>
        <CharString name="A">
          136 859 -103 callsubr
          endchar
        </CharString>
        <CharString name="AE">
          716 1143 -42 callsubr
          endchar
        </CharString>
        <CharString name="AEacute">
          716 1143 -42 callsubr
          515 1142 -83 callsubr
        </CharString>
        <CharString name="AEmacron">
          716 1143 -42 callsubr
          788 1342 -79 callgsubr
        </CharString>
        <CharString name="Aacute">
          136 859 -103 callsubr
          54 1176 -83 callsubr
        </CharString>
        <CharString name="Abreve">
          136 859 -103 callsubr
          -315 1470 rmoveto
          -74 callgsubr
          endchar
        </CharString>
        <CharString name="Abreveacute">
          136 859 -103 callsubr
          -94 1470 -1 callgsubr
          -172 -543 -40 callgsubr
        </CharString>
        <CharString name="Abrevedotbelow">
          136 859 -103 callsubr
          -315 1470 rmoveto
          -74 callgsubr
          -268 -2298 -102 callsubr
        </CharString>
        <CharString name="Abrevegrave">
          136 859 -103 callsubr
          107 1470 23 callgsubr
        </CharString>
        <CharString name="Abrevehookabove">
          136 859 -103 callsubr
          -156 1643 rmoveto
          7 27 28 3 33 hhcurveto
          61 35 -24 -40 -45 -46 -36 -66 -13 hvcurveto
          73 -86 rlineto
          111 32 71 78 92 vvcurveto
          94 -81 62 -121 -30 -44 -5 -8 -24 vhcurveto
          86 -596 -40 callgsubr
        </CharString>
        <CharString name="Abrevetilde">
          136 859 -103 callsubr
          166 1469 -6 callsubr
        </CharString>
        <CharString name="Acaron">
          136 859 -103 callsubr
          -123 1171 -87 callgsubr
        </CharString>
        <CharString name="Acircumflex">
          136 859 -103 callsubr
          95 1478 -70 callsubr
        </CharString>
        <CharString name="Acircumflexacute">
          4 callsubr
          69 44 -1 callgsubr
          endchar
        </CharString>
        <CharString name="Acircumflexdotbelow">
          136 859 -103 callsubr
          95 1478 -78 callsubr
          -746 -1999 -102 callsubr
        </CharString>
        <CharString name="Acircumflexgrave">
          4 callsubr
          276 44 rmoveto
          -126 54 callsubr
        </CharString>
        <CharString name="Acircumflexhookabove">
          4 callsubr
          30 159 rmoveto
          8 26 28 4 29 hhcurveto
          55 35 -25 -38 -45 -43 -35 -59 -14 hvcurveto
          65 -86 rlineto
          110 35 68 76 95 vvcurveto
          90 -74 58 -117 -34 -43 -6 -10 -21 vhcurveto
          endchar
        </CharString>
        <CharString name="Acircumflextilde">
          136 859 -103 callsubr
          159 1469 -43 callgsubr
        </CharString>
        <CharString name="Acyrillic">
          146 864 -103 callsubr
          endchar
        </CharString>
        <CharString name="Adblgrave">
          136 859 -103 callsubr
          -290 1176 -34 callsubr
        </CharString>
        <CharString name="Adieresis">
          136 859 -103 callsubr
          -202 1221 -105 callgsubr
        </CharString>
        <CharString name="Adieresismacron">
          136 859 -103 callsubr
          -205 1400 -39 callgsubr
        </CharString>
        <CharString name="Adotaccent">
          136 859 -103 callsubr
          -7 1226 -102 callsubr
        </CharString>
        <CharString name="Adotbelow">
          136 859 -103 callsubr
          -438 -828 -102 callsubr
        </CharString>
        <CharString name="Adotmacron">
          136 859 -103 callsubr
          -15 1184 16 callsubr
        </CharString>
        <CharString name="Agrave">
          136 859 -103 callsubr
          -139 1176 rmoveto
          169 -37 callgsubr
          endchar
        </CharString>
        <CharString name="Ahookabove">
          136 859 -103 callsubr
          -188 1391 -64 callsubr
        </CharString>
        <CharString name="Ainvertedbreve">
          136 859 -103 callsubr
          287 1158 -59 callsubr
        </CharString>
        <CharString name="Alphagreek">
          136 859 -103 callsubr
          endchar
        </CharString>
        <CharString name="Alphatonosgreek">
          136 859 -103 callsubr
          -729 751 17 callgsubr
          endchar
        </CharString>
        <CharString name="Amacron">
          136 859 -103 callsubr
          327 1376 -79 callgsubr
        </CharString>
        <CharString name="Aogonek">
          136 1140 -285 rmoveto
          -8 -18 -27 -4 -28 hhcurveto
          -62 -35 27 46 69 81 82 163 79 hvcurveto
          23 11 -210 1426 rlineto
          -244 hlineto
          -826 -27 callsubr
          243 hlineto
          215 383 rlineto
          553 hlineto
          53 -380 rlineto
          -148 -84 -85 -101 -98 vvcurveto
          -99 81 -64 120 113 callgsubr
          -255 1613 rmoveto
          5 hlineto
          85 -621 rlineto
          -436 hlineto
          endchar
        </CharString>
        <CharString name="Aring">
          136 859 -103 callsubr
          -6 1177 rmoveto
          -90 callgsubr
        </CharString>
        <CharString name="Aringacute">
          136 859 -103 callsubr
          -19 1127 14 callgsubr
        </CharString>
        <CharString name="Aringbelow">
          136 859 -103 callsubr
          -440 -894 rmoveto
          -90 callgsubr
        </CharString>
        <CharString name="Atilde">
          136 859 -103 callsubr
          107 1163 -103 callgsubr
          endchar
        </CharString>
        <CharString name="B">
          124 703 -83 callgsubr
          endchar
        </CharString>
        <CharString name="Bdotaccent">
          124 703 -83 callgsubr
          192 1418 -102 callsubr
        </CharString>
        <CharString name="Bdotbelow">
          124 703 -83 callgsubr
          -181 -636 -102 callsubr
        </CharString>
        <CharString name="Becyrillic">
          73 654 hmoveto
          343 230 234 265 238 -191 147 -282 hvcurveto
          -265 hlineto
          78 355 rlineto
          666 hlineto
          42 204 rlineto
          -894 -99 callsubr
          267 197 rmoveto
          108 493 rlineto
          262 hlineto
          171 115 -70 -149 -153 -154 -121 -203 hvcurveto
          endchar
        </CharString>
        <CharString name="Betagreek">
          124 703 -83 callgsubr
          endchar
        </CharString>
        <CharString name="Blinebelow">
          124 703 -83 callgsubr
          164 -434 -79 callgsubr
        </CharString>
        <CharString name="C">
          235 1267 950 -95 callgsubr
          endchar
        </CharString>
        <CharString name="Cacute">
          235 1267 950 -95 callgsubr
          -220 611 -83 callsubr
        </CharString>
        <CharString name="Ccaron">
          235 1267 950 -95 callgsubr
          -397 606 -87 callgsubr
        </CharString>
        <CharString name="Ccedilla">
          235 1490 950 rmoveto
          1 10 0 9 -1 17 rrcurveto
          291 -15 -229 189 -319 hhcurveto
          -445 -314 -366 -502 -343 192 -231 309 -41 hvcurveto
          -73 -124 -19 -85 rlineto
          59 hlineto
          104 43 -18 -41 -41 -44 -23 -79 -46 -48 8 14 -39 hvcurveto
          -26 -125 rlineto
          -15 41 70 -11 59 hhcurveto
          155 105 84 123 93 -66 53 -113 hvcurveto
          63 103 284 18 227 182 70 274 rlinecurve
          -223 hlineto
          -167 -64 -149 -100 -183 hhcurveto
          -234 -144 161 263 377 211 273 307 189 143 -108 -173 17 hvcurveto
          -13 1 -9 -6 vvcurveto
          endchar
        </CharString>
        <CharString name="Ccedillaacute">
          235 1372 1857 rmoveto
          -231 hlineto
          -285 -296 rlineto
          191 hlineto
          443 -611 rmoveto
          1 10 0 9 -1 17 rrcurveto
          291 -15 -229 189 -319 hhcurveto
          -445 -314 -366 -502 -343 192 -231 309 -41 hvcurveto
          -73 -124 -19 -85 rlineto
          59 hlineto
          104 43 -18 -41 -41 -44 -23 -79 -46 -48 8 14 -39 hvcurveto
          -26 -125 rlineto
          -15 41 70 -11 59 hhcurveto
          155 105 84 123 93 -66 53 -113 hvcurveto
          63 103 284 18 227 182 70 274 rlinecurve
          -223 hlineto
          -167 -64 -149 -100 -183 hhcurveto
          -234 -144 161 263 377 211 273 307 189 143 -108 -173 17 hvcurveto
          -13 1 -9 -6 vvcurveto
          endchar
        </CharString>
        <CharString name="Ccircumflex">
          235 1267 950 -95 callgsubr
          -179 913 -70 callsubr
        </CharString>
        <CharString name="Cdotaccent">
          235 1267 950 -95 callgsubr
          -281 661 -102 callsubr
        </CharString>
        <CharString name="Checyrillic">
          10 callsubr
          endchar
        </CharString>
        <CharString name="Chigreek">
          143 -28 31 callsubr
        </CharString>
        <CharString name="D">
          235 376 1443 28 callsubr
        </CharString>
        <CharString name="Dcaron">
          235 376 1443 -90 callsubr
          409 1352 -87 callgsubr
        </CharString>
        <CharString name="Dcircumflexbelow">
          235 376 1443 -90 callsubr
          275 -367 -64 callgsubr
        </CharString>
        <CharString name="Dcommaaccent">
          235 376 1443 -90 callsubr
          84 -678 -40 callsubr
        </CharString>
        <CharString name="Dcroat">
          235 338 202 rmoveto
          93 430 rlineto
          303 hlineto
          41 204 rlineto
          -300 hlineto
          88 405 rlineto
          222 hlineto
          273 144 -142 -265 -373 -236 -259 -329 hvcurveto
          -261 1241 rmoveto
          -129 -607 rlineto
          -136 hlineto
          -41 -204 rlineto
          134 hlineto
          -134 -632 rlineto
          589 hlineto
          460 314 355 509 364 -230 215 -375 hvcurveto
          endchar
        </CharString>
        <CharString name="Ddotaccent">
          235 376 1443 -90 callsubr
          525 1407 -102 callsubr
        </CharString>
        <CharString name="Ddotbelow">
          235 376 1443 -90 callsubr
          168 -647 -102 callsubr
        </CharString>
        <CharString name="Decyrillic">
          271 518 567 rmoveto
          190 672 rlineto
          520 hlineto
          -225 -1035 rlineto
          -660 hlineto
          3 14 84 80 43 108 45 161 rlinecurve
          -379 -567 rmoveto
          1025 109 callgsubr
          206 hlineto
          105 callsubr
          -948 hlineto
          -240 -864 -51 -192 -63 -121 -116 -62 rlinecurve
          -105 hlineto
          -102 -489 rlineto
          206 hlineto
          endchar
        </CharString>
        <CharString name="Deltagreek">
          157 1220 hmoveto
          31 147 -211 1296 rlineto
          -244 hlineto
          -766 -1295 -31 -148 rlineto
          870 1199 rmoveto
          5 hlineto
          155 -992 -1 -3 rlineto
          -734 hlineto
          1 5 rlineto
          endchar
        </CharString>
        <CharString name="Djecyrillic">
          500 440 hmoveto
          228 hlineto
          110 512 rlineto
          107 75 151 80 136 hhcurveto
          160 94 -91 -156 -170 -130 -122 -178 -58 -56 8 7 -18 hvcurveto
          -41 -198 rlineto
          -7 20 73 -10 80 hhcurveto
          324 215 216 308 257 -162 166 -277 -134 -129 -54 -80 -78 hvcurveto
          -14 hlineto
          102 466 rlineto
          448 hlineto
          42 204 rlineto
          -1124 39 callgsubr
          448 hlineto
          endchar
        </CharString>
        <CharString name="Dlinebelow">
          235 376 1443 -90 callsubr
          513 -445 -79 callgsubr
        </CharString>
        <CharString name="Dzecyrillic">
          73 98 424 rmoveto
          -101 callgsubr
          endchar
        </CharString>
        <CharString name="Dzhecyrillic">
          256 1244 hmoveto
          -69 callsubr
          -227 98 callsubr
          -720 hlineto
          266 1238 12 callgsubr
          514 109 callgsubr
          198 hlineto
          61 285 rlineto
          endchar
        </CharString>
        <CharString name="E">
          -45 1027 204 -101 callsubr
          endchar
        </CharString>
        <CharString name="Eacute">
          -45 1027 204 -101 callsubr
          -35 1559 -83 callsubr
        </CharString>
        <CharString name="Ebreve">
          -45 1027 204 -101 callsubr
          -404 1853 rmoveto
          -74 callgsubr
          endchar
        </CharString>
        <CharString name="Ecaron">
          -45 1027 204 -101 callsubr
          -212 1554 -87 callgsubr
        </CharString>
        <CharString name="Ecedilla">
          -45 1252 1239 rmoveto
          42 204 rlineto
          -918 hlineto
          -307 -1443 rlineto
          406 hlineto
          -83 -141 -19 -85 rlineto
          59 hlineto
          104 43 -18 -41 -41 -44 -23 -79 -46 -48 8 14 -39 hvcurveto
          -26 -125 rlineto
          -15 41 70 -11 59 hhcurveto
          155 105 84 123 93 -66 53 -113 hvcurveto
          76 125 rlineto
          363 hlineto
          40 204 rlineto
          -689 hlineto
          95 433 rlineto
          652 hlineto
          40 194 rlineto
          -653 hlineto
          90 408 rlineto
          endchar
        </CharString>
        <CharString name="Ecedillabreve">
          -45 1105 1853 rmoveto
          -116 -26 -93 -70 -111 hhcurveto
          -95 -59 52 87 17 3 17 4 13 hvcurveto
          -145 hlineto
          -5 -21 -4 -24 -26 vvcurveto
          -143 116 -98 163 213 144 121 191 42 vhcurveto
          0 -614 rmoveto
          42 204 rlineto
          -918 hlineto
          -307 -1443 rlineto
          406 hlineto
          -83 -141 -19 -85 rlineto
          59 hlineto
          104 43 -18 -41 -41 -44 -23 -79 -46 -48 8 14 -39 hvcurveto
          -26 -125 rlineto
          -15 41 70 -11 59 hhcurveto
          155 105 84 123 93 -66 53 -113 hvcurveto
          76 125 rlineto
          363 hlineto
          40 204 rlineto
          -689 hlineto
          95 433 rlineto
          652 hlineto
          40 194 rlineto
          -653 hlineto
          90 408 rlineto
          endchar
        </CharString>
        <CharString name="Ecircumflex">
          -45 1027 204 -101 callsubr
          6 1861 -70 callsubr
        </CharString>
        <CharString name="Ecircumflexacute">
          -45 1027 204 -101 callsubr
          -176 1809 -57 callgsubr
          69 44 -1 callgsubr
          endchar
        </CharString>
        <CharString name="Ecircumflexbelow">
          -45 1027 204 -101 callsubr
          -399 -165 -64 callgsubr
        </CharString>
        <CharString name="Ecircumflexdotbelow">
          -45 1027 204 -101 callsubr
          6 1861 -78 callsubr
          -725 -1999 -102 callsubr
        </CharString>
        <CharString name="Ecircumflexgrave">
          -45 1027 204 -101 callsubr
          -176 1809 -57 callgsubr
          276 44 rmoveto
          -126 54 callsubr
        </CharString>
        <CharString name="Ecircumflexhookabove">
          -45 1027 204 -101 callsubr
          -176 1809 -57 callgsubr
          30 159 rmoveto
          8 26 28 4 29 hhcurveto
          55 35 -25 -38 -45 -43 -35 -59 -14 hvcurveto
          65 -86 rlineto
          110 35 68 76 95 vvcurveto
          90 -74 58 -117 -34 -43 -6 -10 -21 vhcurveto
          endchar
        </CharString>
        <CharString name="Ecircumflextilde">
          -45 1027 204 -101 callsubr
          70 1852 -43 callgsubr
        </CharString>
        <CharString name="Ecyrillic">
          -9 callsubr
          endchar
        </CharString>
        <CharString name="Edblgrave">
          -45 1027 204 -101 callsubr
          -379 1559 -34 callsubr
        </CharString>
        <CharString name="Edieresis">
          -45 1027 204 -101 callsubr
          -291 1604 -105 callgsubr
        </CharString>
        <CharString name="Edotaccent">
          -45 1027 204 -101 callsubr
          -97 1609 -102 callsubr
        </CharString>
        <CharString name="Edotbelow">
          -45 1027 204 -101 callsubr
          -506 -52 callgsubr
        </CharString>
        <CharString name="Efcyrillic">
          485 879 -25 rmoveto
          32 153 rlineto
          460 14 326 287 392 vvcurveto
          296 -203 192 -329 14 vhcurveto
          30 145 rlineto
          -221 hlineto
          -31 -145 rlineto
          -460 -14 -326 -287 -393 vvcurveto
          -296 203 -192 329 -13 vhcurveto
          -32 -153 rlineto
          -272 661 rmoveto
          270 219 204 300 13 vhcurveto
          -174 -795 rlineto
          -216 8 -129 116 184 vvcurveto
          1084 176 rmoveto
          -267 -218 -204 -301 -13 vhcurveto
          174 795 rlineto
          216 -8 129 -116 -187 vvcurveto
          endchar
        </CharString>
        <CharString name="Egrave">
          -45 1027 204 -101 callsubr
          -228 1559 rmoveto
          169 -37 callgsubr
          endchar
        </CharString>
        <CharString name="Ehookabove">
          -45 1027 204 -101 callsubr
          -277 1774 -64 callsubr
        </CharString>
        <CharString name="Einvertedbreve">
          -45 1027 204 -101 callsubr
          198 1541 -59 callsubr
        </CharString>
        <CharString name="Elcyrillic">
          186 1173 hmoveto
          -45 callgsubr
        </CharString>
        <CharString name="Emacron">
          -45 1027 204 -101 callsubr
          238 1759 -79 callgsubr
        </CharString>
        <CharString name="Emacronacute">
          -45 1027 204 -101 callsubr
          203 1595 18 callsubr
          294 258 rmoveto
          181 hlineto
          249 231 rlineto
          -207 hlineto
          endchar
        </CharString>
        <CharString name="Emacrongrave">
          -45 1027 204 -101 callsubr
          203 1595 18 callsubr
          460 258 rmoveto
          -125 54 callsubr
        </CharString>
        <CharString name="Emcyrillic">
          550 281 19 callsubr
        </CharString>
        <CharString name="Encyrillic">
          278 1266 -4 callgsubr
        </CharString>
        <CharString name="Eogonek">
          -45 69 hmoveto
          712 hlineto
          -1 -4 rlineto
          -140 -76 -81 -103 -97 vvcurveto
          -98 81 -65 120 113 callgsubr
          28 136 rlineto
          -8 -19 -27 -4 -27 hhcurveto
          -62 -35 27 46 66 79 81 145 76 hvcurveto
          24 12 38 193 rlineto
          -690 hlineto
          96 433 rlineto
          652 hlineto
          40 194 rlineto
          -654 hlineto
          91 -56 callgsubr
          -918 hlineto
          endchar
        </CharString>
        <CharString name="Epsilongreek">
          -45 1027 204 -101 callsubr
          endchar
        </CharString>
        <CharString name="Epsilontonosgreek">
          260 176 -2 callgsubr
          1015 -1239 -101 callsubr
          endchar
        </CharString>
        <CharString name="Ercyrillic">
          66 381 -58 callgsubr
          endchar
        </CharString>
        <CharString name="Ereversedcyrillic">
          -82 callgsubr
          endchar
        </CharString>
        <CharString name="Escyrillic">
          245 1272 950 -95 callgsubr
          endchar
        </CharString>
        <CharString name="Etagreek">
          268 1261 -4 callgsubr
        </CharString>
        <CharString name="Etatonosgreek">
          574 176 -2 callgsubr
          1249 -1443 -29 callgsubr
        </CharString>
        <CharString name="Eth">
          235 338 202 rmoveto
          93 430 rlineto
          303 hlineto
          41 204 rlineto
          -300 hlineto
          88 405 rlineto
          222 hlineto
          273 144 -142 -265 -373 -236 -259 -329 hvcurveto
          -261 1241 rmoveto
          -129 -607 rlineto
          -136 hlineto
          -41 -204 rlineto
          134 hlineto
          -134 -632 rlineto
          589 hlineto
          460 314 355 509 364 -230 215 -375 hvcurveto
          endchar
        </CharString>
        <CharString name="Etilde">
          -45 1027 204 -101 callsubr
          18 1546 -103 callgsubr
          endchar
        </CharString>
        <CharString name="Etildebelow">
          -45 1027 204 -101 callsubr
          -379 -448 -103 callgsubr
          endchar
        </CharString>
        <CharString name="Euro">
          78 1424 1420 rmoveto
          23 -51 -116 25 -118 hhcurveto
          -388 -276 -198 -320 -107 hvcurveto
          -156 hlineto
          -31 -146 rlineto
          152 hlineto
          -8 -54 -5 -56 -59 vvcurveto
          -178 hlineto
          -31 -147 rlineto
          225 hlineto
          -307 68 288 -197 377 hhcurveto
          25 25 2 3 11 hvcurveto
          42 206 rlineto
          -3 -12 -24 -2 -16 hhcurveto
          -278 -194 111 187 -66 hvcurveto
          435 hlineto
          31 147 rlineto
          -492 hlineto
          3 0 3 3 vvcurveto
          56 5 54 10 50 vhcurveto
          516 hlineto
          31 146 rlineto
          -501 hlineto
          193 88 181 115 249 hhcurveto
          98 102 -22 -20 46 hvcurveto
          endchar
        </CharString>
        <CharString name="F">
          -93 299 14 callsubr
          endchar
        </CharString>
        <CharString name="Fdotaccent">
          -93 299 14 callsubr
          818 1609 -102 callsubr
        </CharString>
        <CharString name="G">
          -93 callgsubr
          endchar
        </CharString>
        <CharString name="Gacute">
          -93 callgsubr
          -388 1015 -83 callsubr
        </CharString>
        <CharString name="Gammagreek">
          -112 300 hmoveto
          265 67 callsubr
          651 hlineto
          42 204 rlineto
          -882 -99 callsubr
          endchar
        </CharString>
        <CharString name="Gbreve">
          -93 callgsubr
          -757 1309 rmoveto
          -74 callgsubr
          endchar
        </CharString>
        <CharString name="Gcaron">
          -93 callgsubr
          -565 1010 -87 callgsubr
        </CharString>
        <CharString name="Gcircumflex">
          -93 callgsubr
          -347 1317 -70 callsubr
        </CharString>
        <CharString name="Gcommaaccent">
          -93 callgsubr
          -818 -1020 -40 callsubr
        </CharString>
        <CharString name="Gdotaccent">
          -93 callgsubr
          -449 1065 -102 callsubr
        </CharString>
        <CharString name="Gecyrillic">
          66 callsubr
          endchar
        </CharString>
        <CharString name="Geupturncyrillic">
          -99 567 1239 rmoveto
          665 hlineto
          101 489 115 callsubr
          -60 -285 rlineto
          -683 -99 callsubr
          228 hlineto
          endchar
        </CharString>
        <CharString name="Gjecyrillic">
          66 callsubr
          855 1559 -83 callsubr
        </CharString>
        <CharString name="Gmacron">
          -93 callgsubr
          -115 1215 -79 callgsubr
        </CharString>
        <CharString name="H">
          268 1261 -4 callgsubr
        </CharString>
        <CharString name="Hardsigncyrillic">
          272 870 hmoveto
          323 246 208 311 261 -190 157 -282 hvcurveto
          -252 hlineto
          109 506 rlineto
          -558 hlineto
          -42 -204 rlineto
          332 22 callsubr
          631 739 rmoveto
          172 116 -77 -159 -180 -152 -126 -201 hvcurveto
          -299 hlineto
          118 542 rlineto
          endchar
        </CharString>
        <CharString name="Hbar">
          268 1209 837 rmoveto
          -734 hlineto
          47 217 rlineto
          734 hlineto
          371 187 rmoveto
          -102 hlineto
          43 202 rlineto
          -229 hlineto
          -43 -202 rlineto
          -734 hlineto
          43 202 rlineto
          -229 hlineto
          -43 -202 rlineto
          -108 hlineto
          -38 -187 rlineto
          106 hlineto
          -224 -1054 rlineto
          229 hlineto
          136 634 rlineto
          734 hlineto
          -136 -634 rlineto
          229 hlineto
          224 1054 rlineto
          103 hlineto
          endchar
        </CharString>
        <CharString name="Hbrevebelow">
          268 1261 hmoveto
          -92 callsubr
          -711 -153 1 callgsubr
        </CharString>
        <CharString name="Hcaron">
          268 1261 hmoveto
          -92 callsubr
          -122 1554 -87 callgsubr
        </CharString>
        <CharString name="Hcedilla">
          268 1339 1443 rmoveto
          -130 -606 rlineto
          -734 hlineto
          130 606 rlineto
          -229 hlineto
          -307 -1443 rlineto
          79 hlineto
          -83 -141 -19 -85 rlineto
          59 hlineto
          104 43 -18 -41 -41 -44 -23 -79 -46 -48 8 14 -39 hvcurveto
          -26 -125 rlineto
          -15 41 70 -11 59 hhcurveto
          155 105 84 123 93 -66 53 -113 hvcurveto
          76 125 rlineto
          1 hlineto
          136 634 rlineto
          734 hlineto
          -136 -634 rlineto
          229 hlineto
          307 1443 rlineto
          endchar
        </CharString>
        <CharString name="Hcircumflex">
          268 1261 hmoveto
          -92 callsubr
          96 1861 -70 callsubr
        </CharString>
        <CharString name="Hdieresis">
          268 1261 hmoveto
          -92 callsubr
          -201 1604 -105 callgsubr
        </CharString>
        <CharString name="Hdotaccent">
          268 1261 hmoveto
          -92 callsubr
          -6 1609 -102 callsubr
        </CharString>
        <CharString name="Hdotbelow">
          268 1261 hmoveto
          -92 callsubr
          -413 -52 callgsubr
        </CharString>
        <CharString name="I">
          -696 296 85 callgsubr
        </CharString>
        <CharString name="I.1">
          -256 1056 1249 rmoveto
          40 194 rlineto
          -273 hlineto
          -227 hlineto
          -272 hlineto
          -40 -194 rlineto
          271 hlineto
          -225 -1055 rlineto
          -274 hlineto
          -39 -194 rlineto
          272 hlineto
          227 hlineto
          273 hlineto
          39 194 rlineto
          -271 hlineto
          225 1055 rlineto
          endchar
        </CharString>
        <CharString name="IAcyrillic">
          -61 callgsubr
          endchar
        </CharString>
        <CharString name="IJ">
          372 296 hmoveto
          -91 callsubr
          487 355 -62 callgsubr
          endchar
        </CharString>
        <CharString name="IJacute">
          372 296 hmoveto
          -91 callsubr
          543 1559 rmoveto
          325 296 rlineto
          -231 hlineto
          -285 -296 rlineto
          1259 hmoveto
          325 296 rlineto
          -231 hlineto
          -285 -296 rlineto
          -933 -1204 -62 callgsubr
          endchar
        </CharString>
        <CharString name="IUcyrillic">
          859 1302 183 rmoveto
          -230 -148 168 262 357 216 290 307 230 148 -167 -262 -358 -216 -290 -307 hvcurveto
          -824 654 rmoveto
          130 606 rlineto
          -227 hlineto
          -307 -1443 rlineto
          226 hlineto
          136 633 rlineto
          261 hlineto
          -10 0 -11 -10 vvcurveto
          -373 235 -252 368 433 321 378 486 373 -236 252 -369 -361 -281 -261 -368 -84 vhcurveto
          endchar
        </CharString>
        <CharString name="Iacute">
          -696 296 hmoveto
          -91 callsubr
          543 1559 -83 callsubr
        </CharString>
        <CharString name="Iacute.1">
          -256 1155 1855 rmoveto
          -231 hlineto
          -285 -296 rlineto
          191 hlineto
          -234 -116 rmoveto
          -272 hlineto
          -40 -194 rlineto
          271 hlineto
          -225 -1055 rlineto
          -274 hlineto
          -39 -194 rlineto
          272 hlineto
          227 hlineto
          273 hlineto
          39 194 rlineto
          -271 hlineto
          225 1055 rlineto
          274 hlineto
          40 194 rlineto
          -273 hlineto
          endchar
        </CharString>
        <CharString name="Ibreve">
          -696 296 hmoveto
          -91 callsubr
          174 1853 rmoveto
          -74 callgsubr
          endchar
        </CharString>
        <CharString name="Ibreve.1">
          -256 983 1853 rmoveto
          -116 -26 -93 -70 -111 hhcurveto
          -95 -59 52 87 17 3 17 4 13 hvcurveto
          -145 hlineto
          -5 -21 -4 -24 -26 vvcurveto
          -143 116 -98 163 213 144 121 191 42 vhcurveto
          -534 -410 rmoveto
          -272 hlineto
          -40 -194 rlineto
          271 hlineto
          -225 -1055 rlineto
          -274 hlineto
          -39 -194 rlineto
          272 hlineto
          227 hlineto
          273 hlineto
          39 194 rlineto
          -271 hlineto
          225 1055 rlineto
          274 hlineto
          40 194 rlineto
          -273 hlineto
          endchar
        </CharString>
        <CharString name="Icaron">
          -696 296 hmoveto
          -91 callsubr
          366 1554 -87 callgsubr
        </CharString>
        <CharString name="Icaron.1">
          -256 820 1554 rmoveto
          342 307 rlineto
          -195 hlineto
          -213 -192 rlineto
          -6 hlineto
          -132 192 rlineto
          -176 hlineto
          213 -307 rlineto
          -57 -111 rmoveto
          -272 hlineto
          -40 -194 rlineto
          271 hlineto
          -225 -1055 rlineto
          -274 hlineto
          -39 -194 rlineto
          272 hlineto
          227 hlineto
          273 hlineto
          39 194 rlineto
          -271 hlineto
          225 1055 rlineto
          274 hlineto
          40 194 rlineto
          -273 hlineto
          endchar
        </CharString>
        <CharString name="Icircumflex">
          -696 296 hmoveto
          -91 callsubr
          584 1861 -70 callsubr
        </CharString>
        <CharString name="Icircumflex.1">
          -256 770 1746 rmoveto
          7 hlineto
          131 -192 rlineto
          176 hlineto
          -213 307 rlineto
          -167 hlineto
          -342 -307 rlineto
          195 hlineto
          499 -305 rmoveto
          40 194 rlineto
          -273 hlineto
          -227 hlineto
          -272 hlineto
          -40 -194 rlineto
          271 hlineto
          -225 -1055 rlineto
          -274 hlineto
          -39 -194 rlineto
          272 hlineto
          227 hlineto
          273 hlineto
          39 194 rlineto
          -271 hlineto
          225 1055 rlineto
          endchar
        </CharString>
        <CharString name="Icyrillic">
          76 callsubr
        </CharString>
        <CharString name="Icyrillic.1">
          -236 1066 1249 rmoveto
          40 194 rlineto
          -273 hlineto
          -227 hlineto
          -272 hlineto
          -40 -194 rlineto
          271 hlineto
          -225 -1055 rlineto
          -274 hlineto
          -39 -194 rlineto
          272 hlineto
          227 hlineto
          273 hlineto
          39 194 rlineto
          -271 hlineto
          225 1055 rlineto
          endchar
        </CharString>
        <CharString name="Idblgrave">
          -696 296 hmoveto
          -91 callsubr
          199 1559 -34 callsubr
        </CharString>
        <CharString name="Idblgrave.1">
          -256 1001 1559 rmoveto
          -160 296 rlineto
          -209 hlineto
          201 -296 rlineto
          -179 0 rmoveto
          -160 296 rlineto
          -209 hlineto
          201 -296 rlineto
          570 -310 rmoveto
          40 194 rlineto
          -273 hlineto
          -227 hlineto
          -272 hlineto
          -40 -194 rlineto
          271 hlineto
          -225 -1055 rlineto
          -274 hlineto
          -39 -194 rlineto
          272 hlineto
          227 hlineto
          273 hlineto
          39 194 rlineto
          -271 hlineto
          225 1055 rlineto
          endchar
        </CharString>
        <CharString name="Idieresis">
          19 callgsubr
        </CharString>
        <CharString name="Idieresis.1">
          -256 954 1604 rmoveto
          65 52 52 65 65 -52 52 -65 -65 -52 -52 -65 -65 52 -52 65 hvcurveto
          -380 0 rmoveto
          65 52 52 65 65 -52 52 -65 -65 -52 -52 -65 -65 52 -52 65 hvcurveto
          482 -355 rmoveto
          40 194 rlineto
          -273 hlineto
          -227 hlineto
          -272 hlineto
          -40 -194 rlineto
          271 hlineto
          -225 -1055 rlineto
          -274 hlineto
          -39 -194 rlineto
          272 hlineto
          227 hlineto
          273 hlineto
          39 194 rlineto
          -271 hlineto
          225 1055 rlineto
          endchar
        </CharString>
        <CharString name="Idieresisacute">
          -696 296 hmoveto
          -91 callsubr
          400 1853 -1 callgsubr
          -336 -529 -33 callsubr
        </CharString>
        <CharString name="Idieresisacute.1">
          -256 1116 2084 rmoveto
          -206 hlineto
          -223 -231 rlineto
          181 hlineto
          -40 -183 rmoveto
          -64 49 -51 63 63 50 51 64 63 -50 51 -63 -63 -49 -51 -63 vhcurveto
          -254 -115 rmoveto
          62 50 51 64 63 -50 51 -62 -63 -50 -51 -63 -64 50 -51 63 hvcurveto
          22 -112 rmoveto
          -272 hlineto
          -40 -194 rlineto
          271 hlineto
          -225 -1055 rlineto
          -274 hlineto
          -39 -194 rlineto
          272 hlineto
          227 hlineto
          273 hlineto
          39 194 rlineto
          -271 hlineto
          225 1055 rlineto
          274 hlineto
          40 194 rlineto
          -273 hlineto
          endchar
        </CharString>
        <CharString name="Idotaccent">
          -696 296 hmoveto
          -91 callsubr
          482 1609 -102 callsubr
        </CharString>
        <CharString name="Idotaccent.1">
          -256 769 1609 rmoveto
          74 59 61 75 74 -59 62 -74 -74 -60 -62 -74 -75 60 -61 74 hvcurveto
          287 -360 rmoveto
          40 194 rlineto
          -273 hlineto
          -227 hlineto
          -272 hlineto
          -40 -194 rlineto
          271 hlineto
          -225 -1055 rlineto
          -274 hlineto
          -39 -194 rlineto
          272 hlineto
          227 hlineto
          273 hlineto
          39 194 rlineto
          -271 hlineto
          225 1055 rlineto
          endchar
        </CharString>
        <CharString name="Idotbelow">
          -696 296 hmoveto
          -91 callsubr
          44 -52 callgsubr
        </CharString>
        <CharString name="Idotbelow.1">
          -256 334 -173 rmoveto
          -74 -60 -62 -74 -75 60 -61 74 74 59 61 75 74 -59 62 -74 hvcurveto
          722 1422 rmoveto
          40 194 rlineto
          -273 hlineto
          -227 hlineto
          -272 hlineto
          -40 -194 rlineto
          271 hlineto
          -225 -1055 rlineto
          -274 hlineto
          -39 -194 rlineto
          272 hlineto
          227 hlineto
          273 hlineto
          39 194 rlineto
          -271 hlineto
          225 1055 rlineto
          endchar
        </CharString>
        <CharString name="Iecyrillic">
          -35 1032 204 -101 callsubr
          endchar
        </CharString>
        <CharString name="Igrave">
          -696 296 hmoveto
          -91 callsubr
          350 1559 rmoveto
          169 -37 callgsubr
          endchar
        </CharString>
        <CharString name="Igrave.1">
          -256 806 1559 rmoveto
          -160 296 rlineto
          -209 hlineto
          200 -296 rlineto
          419 -310 rmoveto
          40 194 rlineto
          -273 hlineto
          -227 hlineto
          -272 hlineto
          -40 -194 rlineto
          271 hlineto
          -225 -1055 rlineto
          -274 hlineto
          -39 -194 rlineto
          272 hlineto
          227 hlineto
          273 hlineto
          39 194 rlineto
          -271 hlineto
          225 1055 rlineto
          endchar
        </CharString>
        <CharString name="Ihookabove">
          -696 296 hmoveto
          -91 callsubr
          301 1774 -64 callsubr
        </CharString>
        <CharString name="Ihookabove.1">
          -256 706 1521 rmoveto
          135 36 82 87 101 vvcurveto
          96 -79 62 -126 -33 -47 -7 -9 -23 vhcurveto
          -27 -113 rlineto
          7 28 31 4 32 hhcurveto
          58 35 -25 -41 -48 -46 -38 -69 -17 hvcurveto
          399 -367 rmoveto
          40 194 rlineto
          -273 hlineto
          -227 hlineto
          -272 hlineto
          -40 -194 rlineto
          271 hlineto
          -225 -1055 rlineto
          -274 hlineto
          -39 -194 rlineto
          272 hlineto
          227 hlineto
          273 hlineto
          39 194 rlineto
          -271 hlineto
          225 1055 rlineto
          endchar
        </CharString>
        <CharString name="Iicyrillic">
          277 1041 hmoveto
          -53 callgsubr
          endchar
        </CharString>
        <CharString name="Iinvertedbreve">
          -696 296 hmoveto
          -91 callsubr
          776 1541 -59 callsubr
        </CharString>
        <CharString name="Iinvertedbreve.1">
          -256 1063 1541 rmoveto
          6 18 3 24 26 vvcurveto
          142 -116 102 -163 -212 -144 -124 -188 -42 vhcurveto
          146 hlineto
          113 27 92 73 111 hhcurveto
          96 59 -55 -88 -16 -4 -17 -4 -10 hvcurveto
          138 -292 rmoveto
          40 194 rlineto
          -273 hlineto
          -227 hlineto
          -272 hlineto
          -40 -194 rlineto
          271 hlineto
          -225 -1055 rlineto
          -274 hlineto
          -39 -194 rlineto
          272 hlineto
          227 hlineto
          273 hlineto
          39 194 rlineto
          -271 hlineto
          225 1055 rlineto
          endchar
        </CharString>
        <CharString name="Iishortcyrillic">
          277 1041 hmoveto
          -53 callgsubr
          -566 792 -75 callsubr
        </CharString>
        <CharString name="Imacron">
          -696 296 hmoveto
          -91 callsubr
          816 1759 -79 callgsubr
        </CharString>
        <CharString name="Imacron.1">
          -256 1103 1759 rmoveto
          -654 hlineto
          -28 -132 rlineto
          655 hlineto
          -480 -184 rmoveto
          -272 hlineto
          -40 -194 rlineto
          271 hlineto
          -225 -1055 rlineto
          -274 hlineto
          -39 -194 rlineto
          272 hlineto
          227 hlineto
          273 hlineto
          39 194 rlineto
          -271 hlineto
          225 1055 rlineto
          274 hlineto
          40 194 rlineto
          -273 hlineto
          endchar
        </CharString>
        <CharString name="Iocyrillic">
          -35 1032 204 -101 callsubr
          -291 1604 -105 callgsubr
        </CharString>
        <CharString name="Iogonek">
          -696 111 -443 rmoveto
          52 49 9 13 22 hvcurveto
          28 136 rlineto
          -8 -16 -26 -4 -31 hhcurveto
          -61 -36 27 50 66 52 73 134 82 hvcurveto
          21 13 304 1429 rlineto
          -227 hlineto
          -310 -1457 11 -1 rlineto
          -112 -95 -55 -85 -84 vvcurveto
          -99 81 -65 120 vhcurveto
          endchar
        </CharString>
        <CharString name="Iogonek.1">
          -256 284 1249 rmoveto
          273 hlineto
          -229 -1055 rlineto
          -272 hlineto
          -39 -194 rlineto
          566 hlineto
          -1 -4 rlineto
          -139 -76 -82 -102 -98 vvcurveto
          -99 82 -64 119 113 callgsubr
          28 136 rlineto
          -8 -18 -27 -4 -28 hhcurveto
          -62 -35 27 46 69 82 79 142 75 hvcurveto
          24 12 37 183 rlineto
          -272 hlineto
          228 1055 rlineto
          272 hlineto
          40 194 rlineto
          -772 hlineto
          endchar
        </CharString>
        <CharString name="Iotadieresisgreek">
          19 callgsubr
        </CharString>
        <CharString name="Iotadieresisgreek.1">
          -256 954 1604 rmoveto
          65 52 52 65 65 -52 52 -65 -65 -52 -52 -65 -65 52 -52 65 hvcurveto
          -380 0 rmoveto
          65 52 52 65 65 -52 52 -65 -65 -52 -52 -65 -65 52 -52 65 hvcurveto
          482 -355 rmoveto
          40 194 rlineto
          -273 hlineto
          -227 hlineto
          -272 hlineto
          -40 -194 rlineto
          271 hlineto
          -225 -1055 rlineto
          -274 hlineto
          -39 -194 rlineto
          272 hlineto
          227 hlineto
          273 hlineto
          39 194 rlineto
          -271 hlineto
          225 1055 rlineto
          endchar
        </CharString>
        <CharString name="Iotagreek">
          -696 296 85 callgsubr
        </CharString>
        <CharString name="Iotagreek.1">
          -256 1056 1249 rmoveto
          40 194 rlineto
          -273 hlineto
          -227 hlineto
          -272 hlineto
          -40 -194 rlineto
          271 hlineto
          -225 -1055 rlineto
          -274 hlineto
          -39 -194 rlineto
          272 hlineto
          227 hlineto
          273 hlineto
          39 194 rlineto
          -271 hlineto
          225 1055 rlineto
          endchar
        </CharString>
        <CharString name="Iotatonosgreek">
          -391 176 -2 callgsubr
          284 -1443 -72 callgsubr
          endchar
        </CharString>
        <CharString name="Iotatonosgreek.1">
          79 569 1443 rmoveto
          -252 hlineto
          -141 -309 rlineto
          175 hlineto
          1039 115 rmoveto
          40 194 rlineto
          -273 hlineto
          -227 hlineto
          -272 hlineto
          -40 -194 rlineto
          271 hlineto
          -225 -1055 rlineto
          -274 hlineto
          -39 -194 rlineto
          272 hlineto
          227 hlineto
          273 hlineto
          39 194 rlineto
          -271 hlineto
          225 1055 rlineto
          endchar
        </CharString>
        <CharString name="Itilde">
          -696 296 hmoveto
          -91 callsubr
          596 1546 -103 callgsubr
          endchar
        </CharString>
        <CharString name="Itilde.1">
          -256 991 1812 rmoveto
          -89 -20 -39 -45 -42 hhcurveto
          -75 -24 144 -142 hhcurveto
          -119 -94 -100 -164 -30 hvcurveto
          134 hlineto
          86 16 41 46 45 hhcurveto
          79 27 -144 135 hhcurveto
          114 94 104 162 33 hvcurveto
          -528 -369 rmoveto
          -272 hlineto
          -40 -194 rlineto
          271 hlineto
          -225 -1055 rlineto
          -274 hlineto
          -39 -194 rlineto
          272 hlineto
          227 hlineto
          273 hlineto
          39 194 rlineto
          -271 hlineto
          225 1055 rlineto
          274 hlineto
          40 194 rlineto
          -273 hlineto
          endchar
        </CharString>
        <CharString name="Itildebelow">
          -696 296 hmoveto
          -91 callsubr
          171 -448 -103 callgsubr
          endchar
        </CharString>
        <CharString name="Itildebelow.1">
          -256 118 -436 rmoveto
          86 16 41 46 45 hhcurveto
          79 27 -144 135 hhcurveto
          114 94 104 162 33 hvcurveto
          -133 hlineto
          -89 -20 -39 -45 -42 hhcurveto
          -75 -24 144 -142 hhcurveto
          -119 -94 -100 -164 -30 hvcurveto
          1072 1685 rmoveto
          40 194 rlineto
          -273 hlineto
          -227 hlineto
          -272 hlineto
          -40 -194 rlineto
          271 hlineto
          -225 -1055 rlineto
          -274 hlineto
          -39 -194 rlineto
          272 hlineto
          227 hlineto
          273 hlineto
          39 194 rlineto
          -271 hlineto
          225 1055 rlineto
          endchar
        </CharString>
        <CharString name="J">
          -124 60 355 -62 callgsubr
          endchar
        </CharString>
        <CharString name="Jcircumflex">
          -124 60 355 -62 callgsubr
          1165 1506 -70 callsubr
        </CharString>
        <CharString name="Jecyrillic">
          -114 65 355 -62 callgsubr
          endchar
        </CharString>
        <CharString name="K">
          -67 callgsubr
          endchar
        </CharString>
        <CharString name="Kacute">
          -67 callgsubr
          917 1559 -83 callsubr
        </CharString>
        <CharString name="Kacyrillic">
          115 1497 1443 rmoveto
          -288 hlineto
          -728 -644 rlineto
          -10 hlineto
          137 644 rlineto
          -227 hlineto
          -307 -1443 rlineto
          227 hlineto
          143 662 rlineto
          11 hlineto
          496 -662 rlineto
          265 hlineto
          -533 726 rlineto
          endchar
        </CharString>
        <CharString name="Kappagreek">
          -67 callgsubr
          endchar
        </CharString>
        <CharString name="Kcaron">
          -67 callgsubr
          740 1554 -87 callgsubr
        </CharString>
        <CharString name="Kcommaaccent">
          -67 callgsubr
          388 -476 -40 callsubr
        </CharString>
        <CharString name="Kdotbelow">
          -67 callgsubr
          472 -52 callgsubr
        </CharString>
        <CharString name="Kjecyrillic">
          115 1311 1855 rmoveto
          -231 hlineto
          -285 -296 rlineto
          191 hlineto
          511 -116 rmoveto
          -288 hlineto
          -728 -644 rlineto
          -10 hlineto
          137 644 rlineto
          -227 hlineto
          -307 -1443 rlineto
          227 hlineto
          143 662 rlineto
          11 hlineto
          496 -662 rlineto
          265 hlineto
          -533 726 rlineto
          endchar
        </CharString>
        <CharString name="Klinebelow">
          -67 callgsubr
          817 -243 -79 callgsubr
        </CharString>
        <CharString name="L">
          -100 1012 206 69 callgsubr
        </CharString>
        <CharString name="Lacute">
          -100 1012 206 -36 callsubr
          -360 1559 -83 callsubr
        </CharString>
        <CharString name="Lambdagreek">
          115 849 1192 rmoveto
          5 hlineto
          138 -1192 rlineto
          218 hlineto
          -190 -51 callsubr
          -245 hlineto
          -808 -27 callsubr
          243 hlineto
          endchar
        </CharString>
        <CharString name="Lcaron">
          -100 918 42 callsubr
          -103 -1237 69 callgsubr
        </CharString>
        <CharString name="Lcircumflexbelow">
          -100 1012 206 -36 callsubr
          -410 -165 -64 callgsubr
        </CharString>
        <CharString name="Lcommaaccent">
          -100 1012 206 -36 callsubr
          -601 -476 -40 callsubr
        </CharString>
        <CharString name="Ldotbelow">
          34 callsubr
          endchar
        </CharString>
        <CharString name="Ldotbelowmacron">
          34 callsubr
          430 2204 -79 callgsubr
        </CharString>
        <CharString name="Ljecyrillic">
          923 530 554 rmoveto
          190 685 rlineto
          484 22 callsubr
          580 hlineto
          343 230 249 282 260 -191 161 -282 hvcurveto
          -252 hlineto
          106 491 rlineto
          -915 hlineto
          -236 -875 rlineto
          -211 -58 -72 -154 -155 hhcurveto
          -19 -26 4 3 -12 hvcurveto
          -42 -209 rlineto
          -6 17 30 -6 35 hhcurveto
          294 121 208 357 96 hvcurveto
          1042 200 rmoveto
          172 117 -80 -172 -171 -154 -134 -203 hvcurveto
          -299 hlineto
          122 557 rlineto
          endchar
        </CharString>
        <CharString name="Llinebelow">
          -100 1012 206 -36 callsubr
          -172 -243 -79 callgsubr
        </CharString>
        <CharString name="Lslash">
          -100 338 206 rmoveto
          94 441 329 155 40 199 -326 -154 128 596 rlineto
          -227 hlineto
          -152 -714 -150 -71 -40 -199 147 70 -112 -529 rlineto
          902 hlineto
          41 206 rlineto
          endchar
        </CharString>
        <CharString name="M">
          540 276 19 callsubr
        </CharString>
        <CharString name="Macute">
          540 276 -70 callgsubr
          1111 1559 -83 callsubr
        </CharString>
        <CharString name="Mdotaccent">
          540 276 -70 callgsubr
          1050 1609 -102 callsubr
        </CharString>
        <CharString name="Mdotbelow">
          540 276 -70 callgsubr
          663 -52 callgsubr
        </CharString>
        <CharString name="Mugreek">
          540 276 19 callsubr
        </CharString>
        <CharString name="N">
          256 -88 callsubr
          endchar
        </CharString>
        <CharString name="Nacute">
          256 -88 callsubr
          1018 1559 -83 callsubr
        </CharString>
        <CharString name="Ncaron">
          256 -88 callsubr
          841 1554 -87 callgsubr
        </CharString>
        <CharString name="Ncircumflexbelow">
          256 -88 callsubr
          634 -165 -64 callgsubr
        </CharString>
        <CharString name="Ncommaaccent">
          256 -88 callsubr
          443 -476 -40 callsubr
        </CharString>
        <CharString name="Ndotaccent">
          256 -88 callsubr
          957 1609 -102 callsubr
        </CharString>
        <CharString name="Ndotbelow">
          256 -88 callsubr
          527 -52 callgsubr
        </CharString>
        <CharString name="Ngrave">
          256 -88 callsubr
          825 1559 rmoveto
          169 -37 callgsubr
          endchar
        </CharString>
        <CharString name="Njecyrillic">
          928 968 hmoveto
          581 hlineto
          336 210 221 252 225 -180 144 -266 hvcurveto
          -276 hlineto
          129 601 rlineto
          -227 hlineto
          -129 -601 rlineto
          -663 hlineto
          129 601 -89 callsubr
          226 hlineto
          138 641 rlineto
          663 hlineto
          130 -444 rmoveto
          98 449 rlineto
          271 hlineto
          155 106 -64 -134 -143 -125 -108 -204 hvcurveto
          endchar
        </CharString>
        <CharString name="Nlinebelow">
          256 -88 callsubr
          872 -243 -79 callgsubr
        </CharString>
        <CharString name="Ntilde">
          256 -88 callsubr
          1071 1546 -103 callgsubr
          endchar
        </CharString>
        <CharString name="Nugreek">
          256 -88 callsubr
          endchar
        </CharString>
        <CharString name="NumberSignCyrillic">
          1035 292 hmoveto
          228 1049 rlineto
          17 hlineto
          478 -1049 rlineto
          208 -56 callsubr
          -219 hlineto
          -228 -1048 rlineto
          -17 hlineto
          -479 1048 rlineto
          -206 -99 callsubr
          2085 459 rmoveto
          36 179 rlineto
          -662 hlineto
          -36 -179 rlineto
          635 672 rmoveto
          -129 -83 -92 -115 -94 -61 67 103 129 80 91 114 96 63 -68 -101 vhcurveto
          186 6 rmoveto
          196 -134 130 -202 -227 -164 -164 -226 -196 133 -130 201 229 164 163 227 vhcurveto
          endchar
        </CharString>
        <CharString name="O">
          338 926 1260 -106 callsubr
          endchar
        </CharString>
        <CharString name="OE">
          1052 1180 hmoveto
          898 hlineto
          41 204 rlineto
          -692 hlineto
          96 433 rlineto
          654 hlineto
          39 194 rlineto
          -654 hlineto
          91 -56 callgsubr
          -898 hlineto
          -55 -257 rlineto
          -4 hlineto
          180 -97 -174 100 -227 hhcurveto
          -441 -319 -383 -480 -377 236 -249 358 171 159 63 119 116 hvcurveto
          4 hlineto
          97 672 rmoveto
          -357 -218 -291 -311 -233 -150 168 262 356 218 291 310 234 150 65 callgsubr
          endchar
        </CharString>
        <CharString name="Oacute">
          338 926 1260 -106 callsubr
          289 1582 -83 callsubr
        </CharString>
        <CharString name="Obreve">
          338 926 1260 -106 callsubr
          -80 1876 rmoveto
          -74 callgsubr
          endchar
        </CharString>
        <CharString name="Ocaron">
          338 926 1260 -106 callsubr
          112 1577 -87 callgsubr
        </CharString>
        <CharString name="Ocircumflex">
          338 926 1260 -106 callsubr
          330 1884 -70 callsubr
        </CharString>
        <CharString name="Ocircumflexacute">
          338 926 1260 -106 callsubr
          148 1832 -57 callgsubr
          69 44 -1 callgsubr
          endchar
        </CharString>
        <CharString name="Ocircumflexdotbelow">
          338 926 1260 -106 callsubr
          330 1884 -78 callsubr
          -615 -1999 -102 callsubr
        </CharString>
        <CharString name="Ocircumflexgrave">
          338 926 1260 -106 callsubr
          148 1832 -57 callgsubr
          276 44 rmoveto
          -126 54 callsubr
        </CharString>
        <CharString name="Ocircumflexhookabove">
          338 926 1260 -106 callsubr
          148 1832 -57 callgsubr
          30 159 rmoveto
          8 26 28 4 29 hhcurveto
          55 35 -25 -38 -45 -43 -35 -59 -14 hvcurveto
          65 -86 rlineto
          110 35 68 76 95 vvcurveto
          90 -74 58 -117 -34 -43 -6 -10 -21 vhcurveto
          endchar
        </CharString>
        <CharString name="Ocircumflextilde">
          338 926 1260 -106 callsubr
          394 1875 -43 callgsubr
        </CharString>
        <CharString name="Ocyrillic">
          348 931 1260 -106 callsubr
          endchar
        </CharString>
        <CharString name="Odblgrave">
          338 926 1260 -106 callsubr
          -55 1582 -34 callsubr
        </CharString>
        <CharString name="Odieresis">
          338 926 1260 -106 callsubr
          33 1627 -105 callgsubr
        </CharString>
        <CharString name="Odieresismacron">
          338 926 1260 -106 callsubr
          30 1806 -39 callgsubr
        </CharString>
        <CharString name="Odotaccent">
          338 926 1260 -106 callsubr
          228 1632 -102 callsubr
        </CharString>
        <CharString name="Odotaccentmacron">
          338 926 1260 -106 callsubr
          220 1590 16 callsubr
        </CharString>
        <CharString name="Odotbelow">
          338 926 1260 -106 callsubr
          -72 -422 -102 callsubr
        </CharString>
        <CharString name="Ograve">
          338 926 1260 -106 callsubr
          96 1582 rmoveto
          169 -37 callgsubr
          endchar
        </CharString>
        <CharString name="Ohookabove">
          338 926 1260 -106 callsubr
          47 1797 -64 callsubr
        </CharString>
        <CharString name="Ohorn">
          -88 callgsubr
          endchar
        </CharString>
        <CharString name="Ohornacute">
          -88 callgsubr
          -472 718 -83 callsubr
        </CharString>
        <CharString name="Ohorndotbelow">
          -88 callgsubr
          -833 -1286 -102 callsubr
        </CharString>
        <CharString name="Ohorngrave">
          -88 callgsubr
          -665 718 rmoveto
          169 -37 callgsubr
          endchar
        </CharString>
        <CharString name="Ohornhookabove">
          -88 callgsubr
          -714 933 -64 callsubr
        </CharString>
        <CharString name="Ohorntilde">
          -88 callgsubr
          -419 705 -103 callgsubr
          endchar
        </CharString>
        <CharString name="Ohungarumlaut">
          338 926 1260 -106 callsubr
          465 1582 2 callsubr
        </CharString>
        <CharString name="Oinvertedbreve">
          338 926 1260 -106 callsubr
          522 1564 -59 callsubr
        </CharString>
        <CharString name="Omacron">
          338 926 1260 -106 callsubr
          562 1782 -79 callgsubr
        </CharString>
        <CharString name="Omacronacute">
          338 926 1260 -106 callsubr
          527 93 callsubr
          294 258 rmoveto
          181 hlineto
          249 231 rlineto
          -207 hlineto
          endchar
        </CharString>
        <CharString name="Omacrongrave">
          338 926 1260 -106 callsubr
          527 93 callsubr
          460 258 rmoveto
          -125 54 callsubr
        </CharString>
        <CharString name="Omegagreek">
          345 864 hmoveto
          -6 callgsubr
        </CharString>
        <CharString name="Omegatonosgreek">
          604 176 -2 callgsubr
          806 -1443 rmoveto
          -6 callgsubr
        </CharString>
        <CharString name="Omicrongreek">
          338 926 1260 -106 callsubr
          endchar
        </CharString>
        <CharString name="Omicrontonosgreek">
          546 176 -2 callgsubr
          817 -183 -106 callsubr
          endchar
        </CharString>
        <CharString name="Oogonek">
          -21 callsubr
          endchar
        </CharString>
        <CharString name="Oogonekmacron">
          -21 callsubr
          30 928 -79 callgsubr
        </CharString>
        <CharString name="Oslash">
          338 1274 1031 rmoveto
          24 -58 12 -67 -75 vvcurveto
          -358 -219 -290 -310 -105 -89 34 61 -65 vhcurveto
          -90 134 rmoveto
          -23 58 -12 68 75 vvcurveto
          357 218 290 311 105 88 -34 -61 66 vhcurveto
          418 195 rmoveto
          -109 114 -152 -152 rlineto
          92 -104 -142 52 -169 hhcurveto
          -437 -322 -378 -486 -139 33 -122 61 -99 hvcurveto
          -159 -159 110 -114 151 152 rlineto
          -92 104 142 -52 168 hhcurveto
          437 324 378 486 139 -33 123 -61 98 hvcurveto
          endchar
        </CharString>
        <CharString name="Oslashacute">
          338 1392 1855 rmoveto
          -231 hlineto
          -285 -296 rlineto
          191 hlineto
          207 -528 rmoveto
          24 -58 12 -67 -75 vvcurveto
          -358 -219 -290 -310 -105 -89 34 61 -65 vhcurveto
          -90 134 rmoveto
          -23 58 -12 68 75 vvcurveto
          357 218 290 311 105 88 -34 -61 66 vhcurveto
          418 195 rmoveto
          -109 114 -152 -152 rlineto
          92 -104 -142 52 -169 hhcurveto
          -437 -322 -378 -486 -139 33 -122 61 -99 hvcurveto
          -159 -159 110 -114 151 152 rlineto
          -92 104 142 -52 168 hhcurveto
          437 324 378 486 139 -33 123 -61 98 hvcurveto
          endchar
        </CharString>
        <CharString name="Otilde">
          338 926 1260 -106 callsubr
          342 1569 -103 callgsubr
          endchar
        </CharString>
        <CharString name="Otildeacute">
          338 926 1260 -106 callsubr
          170 1891 rmoveto
          180 hlineto
          246 216 rlineto
          -207 hlineto
          -56 -544 -49 callgsubr
          endchar
        </CharString>
        <CharString name="Otildedieresis">
          338 926 1260 -106 callsubr
          333 1563 -49 callgsubr
          -235 572 rmoveto
          40 callgsubr
          371 hmoveto
          40 callgsubr
          endchar
        </CharString>
        <CharString name="Otildemacron">
          338 926 1260 -106 callsubr
          622 2071 rmoveto
          -654 hlineto
          -28 99 callsubr
          -261 -376 -49 callgsubr
          endchar
        </CharString>
        <CharString name="P">
          56 376 -58 callgsubr
          endchar
        </CharString>
        <CharString name="Pacute">
          56 376 -58 callgsubr
          452 876 -83 callsubr
        </CharString>
        <CharString name="Pdotaccent">
          56 376 -58 callgsubr
          391 926 -102 callsubr
        </CharString>
        <CharString name="Pecyrillic">
          256 1244 48 callsubr
        </CharString>
        <CharString name="Phigreek">
          504 657 -81 rmoveto
          219 hlineto
          30 144 rlineto
          484 16 325 312 423 vvcurveto
          313 -194 202 -340 36 vhcurveto
          124 callsubr
          -218 hlineto
          -32 -147 rlineto
          -485 -17 -324 -313 -423 vvcurveto
          -308 193 -205 342 -37 vhcurveto
          40 199 rmoveto
          -222 20 -127 130 214 vvcurveto
          319 220 211 323 11 vhcurveto
          25 -907 rmoveto
          194 904 rlineto
          221 -19 128 -129 -215 vvcurveto
          -318 -217 -212 -326 -11 vhcurveto
          endchar
        </CharString>
        <CharString name="Pigreek">
          248 1241 hmoveto
          -69 callsubr
          -1172 -99 callsubr
          228 119 callgsubr
          715 hlineto
          -267 115 callgsubr
        </CharString>
        <CharString name="Psigreek">
          439 861 hmoveto
          69 321 441 22 188 179 74 347 rlinecurve
          120 574 rlineto
          -222 hlineto
          -117 -557 -48 -223 -129 -133 -266 -5 rlinecurve
          197 918 rlineto
          -222 hlineto
          -196 -914 rlineto
          -197 11 -102 71 157 vvcurveto
          38 5 41 11 53 vhcurveto
          114 543 rlineto
          -222 hlineto
          -116 -559 rlineto
          -9 -45 -5 -43 -39 vvcurveto
          -257 160 -145 319 -31 vhcurveto
          -69 -324 rlineto
          endchar
        </CharString>
        <CharString name="Q">
          338 1289 -153 rmoveto
          -123 249 rlineto
          229 152 144 275 318 vvcurveto
          373 -239 252 -373 -437 -322 -378 -486 -373 239 -252 371 75 73 11 21 66 vhcurveto
          83 -162 rlineto
          -294 336 rmoveto
          -234 -150 168 262 357 218 290 311 233 151 -167 -262 -223 -92 -196 -148 -110 hvcurveto
          -78 140 rlineto
          -207 hlineto
          122 -243 rlineto
          -10 -42 -41 -6 -43 hhcurveto
          endchar
        </CharString>
        <CharString name="R">
          100 453 741 rmoveto
          110 505 rlineto
          312 hlineto
          145 89 -83 -135 -168 -138 -119 -199 hvcurveto
          -396 702 rmoveto
          -307 -1443 rlineto
          228 hlineto
          118 550 rlineto
          325 hlineto
          180 -550 rlineto
          236 hlineto
          -195 579 rlineto
          240 58 140 194 219 vvcurveto
          234 -156 159 -278 vhcurveto
          endchar
        </CharString>
        <CharString name="Racute">
          100 1242 1855 rmoveto
          -231 hlineto
          -285 -296 rlineto
          191 hlineto
          -464 -818 rmoveto
          110 505 rlineto
          312 hlineto
          145 89 -83 -135 -168 -138 -119 -199 hvcurveto
          -396 702 rmoveto
          -307 -1443 rlineto
          228 hlineto
          118 550 rlineto
          325 hlineto
          180 -550 rlineto
          236 hlineto
          -195 579 rlineto
          240 58 140 194 219 vvcurveto
          234 -156 159 -278 vhcurveto
          endchar
        </CharString>
        <CharString name="Rcaron">
          100 907 1554 rmoveto
          342 307 rlineto
          -195 hlineto
          -213 -192 rlineto
          -6 hlineto
          -132 192 rlineto
          -176 hlineto
          213 -307 rlineto
          -287 -813 rmoveto
          110 505 rlineto
          312 hlineto
          145 89 -83 -135 -168 -138 -119 -199 hvcurveto
          -396 702 rmoveto
          -307 -1443 rlineto
          228 hlineto
          118 550 rlineto
          325 hlineto
          180 -550 rlineto
          236 hlineto
          -195 579 rlineto
          240 58 140 194 219 vvcurveto
          234 -156 159 -278 vhcurveto
          endchar
        </CharString>
        <CharString name="Rcommaaccent">
          100 290 -476 rmoveto
          165 hlineto
          223 350 rlineto
          -199 hlineto
          -26 867 rmoveto
          110 505 rlineto
          312 hlineto
          145 89 -83 -135 -168 -138 -119 -199 hvcurveto
          -396 702 rmoveto
          -307 -1443 rlineto
          228 hlineto
          118 550 rlineto
          325 hlineto
          180 -550 rlineto
          236 hlineto
          -195 579 rlineto
          240 58 140 194 219 vvcurveto
          234 -156 159 -278 vhcurveto
          endchar
        </CharString>
        <CharString name="Rdblgrave">
          100 1088 1559 rmoveto
          -160 296 rlineto
          -209 hlineto
          201 -296 rlineto
          -179 0 rmoveto
          -160 296 rlineto
          -209 hlineto
          201 -296 rlineto
          -120 -818 rmoveto
          110 505 rlineto
          312 hlineto
          145 89 -83 -135 -168 -138 -119 -199 hvcurveto
          -396 702 rmoveto
          -307 -1443 rlineto
          228 hlineto
          118 550 rlineto
          325 hlineto
          180 -550 rlineto
          236 hlineto
          -195 579 rlineto
          240 58 140 194 219 vvcurveto
          234 -156 159 -278 vhcurveto
          endchar
        </CharString>
        <CharString name="Rdotaccent">
          100 856 1609 rmoveto
          74 59 61 75 74 -59 62 -74 -74 -60 -62 -74 -75 60 -61 74 hvcurveto
          -403 -868 rmoveto
          110 505 rlineto
          312 hlineto
          145 89 -83 -135 -168 -138 -119 -199 hvcurveto
          -396 702 rmoveto
          -307 -1443 rlineto
          228 hlineto
          118 550 rlineto
          325 hlineto
          180 -550 rlineto
          236 hlineto
          -195 579 rlineto
          240 58 140 194 219 vvcurveto
          234 -156 159 -278 vhcurveto
          endchar
        </CharString>
        <CharString name="Rdotbelow">
          100 539 -173 rmoveto
          -74 -60 -62 -74 -75 60 -61 74 74 59 61 75 74 -59 62 -74 hvcurveto
          -86 914 rmoveto
          110 505 rlineto
          312 hlineto
          145 89 -83 -135 -168 -138 -119 -199 hvcurveto
          -396 702 rmoveto
          -307 -1443 rlineto
          228 hlineto
          118 550 rlineto
          325 hlineto
          180 -550 rlineto
          236 hlineto
          -195 579 rlineto
          240 58 140 194 219 vvcurveto
          234 -156 159 -278 vhcurveto
          endchar
        </CharString>
        <CharString name="Rdotbelowmacron">
          100 1190 1759 rmoveto
          -654 hlineto
          -28 -132 rlineto
          655 hlineto
          -624 -1800 rmoveto
          -74 -60 -62 -74 -75 60 -61 74 74 59 61 75 74 -59 62 -74 hvcurveto
          -86 914 rmoveto
          110 505 rlineto
          312 hlineto
          145 89 -83 -135 -168 -138 -119 -199 hvcurveto
          -396 702 rmoveto
          -307 -1443 rlineto
          228 hlineto
          118 550 rlineto
          325 hlineto
          180 -550 rlineto
          236 hlineto
          -195 579 rlineto
          240 58 140 194 219 vvcurveto
          234 -156 159 -278 vhcurveto
          endchar
        </CharString>
        <CharString name="Rhogreek">
          56 376 -58 callgsubr
          endchar
        </CharString>
        <CharString name="Rinvertedbreve">
          100 1150 1541 rmoveto
          6 18 3 24 26 vvcurveto
          142 -116 102 -163 -212 -144 -124 -188 -42 vhcurveto
          146 hlineto
          113 27 92 73 111 hhcurveto
          96 59 -55 -88 -16 -4 -17 -4 -10 hvcurveto
          -552 -800 rmoveto
          110 505 rlineto
          312 hlineto
          145 89 -83 -135 -168 -138 -119 -199 hvcurveto
          -396 702 rmoveto
          -307 -1443 rlineto
          228 hlineto
          118 550 rlineto
          325 hlineto
          180 -550 rlineto
          236 hlineto
          -195 579 rlineto
          240 58 140 194 219 vvcurveto
          234 -156 159 -278 vhcurveto
          endchar
        </CharString>
        <CharString name="Rlinebelow">
          100 202 -375 rmoveto
          655 hlineto
          27 132 rlineto
          -654 hlineto
          223 984 rmoveto
          110 505 rlineto
          312 hlineto
          145 89 -83 -135 -168 -138 -119 -199 hvcurveto
          -396 702 rmoveto
          -307 -1443 rlineto
          228 hlineto
          118 550 rlineto
          325 hlineto
          180 -550 rlineto
          236 hlineto
          -195 579 rlineto
          240 58 140 194 219 vvcurveto
          234 -156 159 -278 vhcurveto
          endchar
        </CharString>
        <CharString name="S">
          63 93 424 rmoveto
          -101 callgsubr
          endchar
        </CharString>
        <CharString name="Sacute">
          63 93 424 rmoveto
          -101 callgsubr
          641 1135 -83 callsubr
        </CharString>
        <CharString name="Sacutedotaccent">
          63 93 424 rmoveto
          -101 callgsubr
          773 1136 rmoveto
          325 296 rlineto
          -231 hlineto
          -285 -296 rlineto
          -181 6 -102 callsubr
        </CharString>
        <CharString name="Scaron">
          63 93 424 rmoveto
          -101 callgsubr
          464 1130 -87 callgsubr
        </CharString>
        <CharString name="Scarondotaccent">
          63 93 424 rmoveto
          -101 callgsubr
          447 1115 34 callgsubr
        </CharString>
        <CharString name="Scedilla">
          63 734 849 rmoveto
          -164 50 -71 62 98 vvcurveto
          108 98 100 190 187 113 -93 -135 7 vhcurveto
          217 hlineto
          266 -217 161 -307 -304 -214 -173 -258 -195 119 -119 239 -74 vhcurveto
          106 -34 rlineto
          171 -53 68 -57 -112 vvcurveto
          -137 -131 -78 -174 -201 -134 102 146 -18 vhcurveto
          -221 hlineto
          8 -250 196 -159 265 -32 -73 -124 rcurveline
          -19 -85 rlineto
          59 hlineto
          104 43 -18 -41 -41 -44 -23 -79 -46 -48 8 14 -39 hvcurveto
          -26 -125 rlineto
          -15 41 70 -11 59 hhcurveto
          155 105 84 123 93 -66 53 -113 hvcurveto
          63 103 rlineto
          321 17 176 204 235 vvcurveto
          189 -120 117 -244 75 vhcurveto
          endchar
        </CharString>
        <CharString name="Scircumflex">
          63 93 424 rmoveto
          -101 callgsubr
          682 1437 -70 callsubr
        </CharString>
        <CharString name="Scommaaccent">
          63 93 424 rmoveto
          -101 callgsubr
          180 -900 -40 callsubr
        </CharString>
        <CharString name="Sdotaccent">
          63 93 424 rmoveto
          -101 callgsubr
          580 1185 -102 callsubr
        </CharString>
        <CharString name="Sdotbelow">
          63 93 424 rmoveto
          -101 callgsubr
          264 -869 -102 callsubr
        </CharString>
        <CharString name="Sdotbelowdotaccent">
          63 93 424 rmoveto
          -101 callgsubr
          264 -869 -102 callgsubr
          316 2054 -102 callsubr
        </CharString>
        <CharString name="Shacyrillic">
          725 74 hmoveto
          1638 -56 callsubr
          -227 22 callsubr
          -479 hlineto
          267 67 callsubr
          -228 22 callsubr
          -478 90 callgsubr
          endchar
        </CharString>
        <CharString name="Shchacyrillic">
          794 1831 -285 rmoveto
          105 callsubr
          -227 22 callsubr
          -479 hlineto
          267 67 callsubr
          -228 22 callsubr
          -478 hlineto
          266 1239 -89 callsubr
          1613 109 callgsubr
          endchar
        </CharString>
        <CharString name="Sigmagreek">
          77 357 208 rmoveto
          458 525 5 18 -222 483 2 5 rlineto
          757 hlineto
          41 204 rlineto
          -1036 hlineto
          -34 -170 249 -531 -519 -587 -31 -155 rlineto
          1084 hlineto
          40 204 rlineto
          -796 hlineto
          endchar
        </CharString>
        <CharString name="Softsigncyrillic">
          56 705 739 rmoveto
          172 116 -77 -159 -180 -152 -126 -201 hvcurveto
          -299 hlineto
          118 542 rlineto
          -385 -739 rmoveto
          580 hlineto
          323 247 208 311 261 -191 157 -282 hvcurveto
          -252 hlineto
          109 506 rlineto
          -227 hlineto
          endchar
        </CharString>
        <CharString name="T">
          36 663 53 callgsubr
        </CharString>
        <CharString name="Taugreek">
          36 663 53 callgsubr
        </CharString>
        <CharString name="Tbar">
          36 1380 1239 rmoveto
          41 204 rlineto
          -1131 hlineto
          -41 -204 rlineto
          452 hlineto
          -89 -414 rlineto
          -324 hlineto
          -41 -204 rlineto
          321 hlineto
          -133 -621 rlineto
          228 hlineto
          133 621 rlineto
          356 hlineto
          41 204 rlineto
          -354 hlineto
          89 414 rlineto
          endchar
        </CharString>
        <CharString name="Tcaron">
          36 663 -51 callgsubr
          368 1554 -87 callgsubr
        </CharString>
        <CharString name="Tcedilla">
          36 290 1443 rmoveto
          -41 -204 rlineto
          452 hlineto
          -266 -1239 rlineto
          78 hlineto
          -83 -141 -19 -85 rlineto
          59 hlineto
          104 43 -18 -41 -41 -44 -23 -79 -46 -48 8 14 -39 hvcurveto
          -26 -125 rlineto
          -15 41 70 -11 59 hhcurveto
          155 105 84 123 93 -66 53 -113 hvcurveto
          76 125 rlineto
          1 hlineto
          265 1239 rlineto
          452 hlineto
          41 204 rlineto
          endchar
        </CharString>
        <CharString name="Tcircumflexbelow">
          36 663 -51 callgsubr
          156 -165 -64 callgsubr
        </CharString>
        <CharString name="Tcommaaccent">
          36 663 -51 callgsubr
          -35 -476 -40 callsubr
        </CharString>
        <CharString name="Tdotaccent">
          36 663 -51 callgsubr
          484 1609 -102 callsubr
        </CharString>
        <CharString name="Tdotbelow">
          36 663 -51 callgsubr
          49 -52 callgsubr
        </CharString>
        <CharString name="Tecyrillic">
          46 668 53 callgsubr
        </CharString>
        <CharString name="Thetagreek">
          361 1131 618 rmoveto
          40 198 rlineto
          -575 hlineto
          -40 -198 rlineto
          230 -641 rmoveto
          450 326 378 482 382 -246 247 -373 -450 -325 -378 -482 -382 246 -247 372 hvcurveto
          548 853 rmoveto
          -359 -224 -290 -318 -241 -156 167 264 360 225 290 318 241 155 -167 -265 vhcurveto
          endchar
        </CharString>
        <CharString name="Thorn">
          42 74 hmoveto
          223 hlineto
          70 323 rlineto
          331 hlineto
          335 228 206 289 220 -167 154 -235 hvcurveto
          -310 hlineto
          55 251 rlineto
          -223 hlineto
          128 -450 rmoveto
          277 hlineto
          162 83 -75 -123 -171 -131 -103 -219 hvcurveto
          -274 hlineto
          endchar
        </CharString>
        <CharString name="Tlinebelow">
          36 663 -51 callgsubr
          394 -243 -79 callgsubr
        </CharString>
        <CharString name="Tsecyrillic">
          358 1368 -285 rmoveto
          105 callsubr
          -229 hlineto
          -266 -1238 rlineto
          -713 98 callgsubr
          -227 hlineto
          -309 -27 callsubr
          1146 109 callgsubr
          endchar
        </CharString>
        <CharString name="Tshecyrillic">
          506 1143 699 rmoveto
          188 81 -117 -197 -43 hvcurveto
          -82 -385 rlineto
          227 hlineto
          82 380 rlineto
          324 68 -155 203 -307 hhcurveto
          -148 -122 -62 -71 -86 hvcurveto
          -15 hlineto
          102 465 rlineto
          448 hlineto
          42 204 rlineto
          -1124 39 callgsubr
          448 22 callsubr
          228 hlineto
          110 512 rlineto
          104 77 140 83 148 hhcurveto
          endchar
        </CharString>
        <CharString name="U">
          -104 callsubr
          endchar
        </CharString>
        <CharString name="Uacute">
          -104 callsubr
          369 1582 -83 callsubr
        </CharString>
        <CharString name="Ubreve">
          -104 callsubr
          1876 vmoveto
          -74 callgsubr
          endchar
        </CharString>
        <CharString name="Ucaron">
          -104 callsubr
          192 1577 -87 callgsubr
        </CharString>
        <CharString name="Ucircumflex">
          -104 callsubr
          410 1884 -70 callsubr
        </CharString>
        <CharString name="Ucircumflexbelow">
          -104 callsubr
          6 -142 -64 callgsubr
        </CharString>
        <CharString name="Ucyrillic">
          -73 callsubr
          endchar
        </CharString>
        <CharString name="Udblgrave">
          -104 callsubr
          25 1582 -34 callsubr
        </CharString>
        <CharString name="Udieresis">
          -104 callsubr
          113 1627 -105 callgsubr
        </CharString>
        <CharString name="Udieresisacute">
          -104 callsubr
          226 1876 -1 callgsubr
          -336 -529 -33 callsubr
        </CharString>
        <CharString name="Udieresisbelow">
          -104 callsubr
          -289 -403 9 callgsubr
        </CharString>
        <CharString name="Udieresiscaron">
          -104 callsubr
          243 1865 13 callsubr
        </CharString>
        <CharString name="Udieresisgrave">
          -104 callsubr
          431 1876 rmoveto
          -125 -1 callsubr
          -160 -298 -33 callsubr
        </CharString>
        <CharString name="Udieresismacron">
          -104 callsubr
          110 1806 -39 callgsubr
        </CharString>
        <CharString name="Udotbelow">
          -104 callsubr
          -101 -422 -102 callsubr
        </CharString>
        <CharString name="Ugrave">
          -104 callsubr
          176 1582 rmoveto
          169 -37 callgsubr
          endchar
        </CharString>
        <CharString name="Uhookabove">
          -104 callsubr
          127 1797 -64 callsubr
        </CharString>
        <CharString name="Uhorn">
          -87 callsubr
          endchar
        </CharString>
        <CharString name="Uhornacute">
          -87 callsubr
          381 1583 -83 callsubr
        </CharString>
        <CharString name="Uhorndotbelow">
          -87 callsubr
          -110 -421 -102 callsubr
        </CharString>
        <CharString name="Uhorngrave">
          -87 callsubr
          188 1583 rmoveto
          169 -37 callgsubr
          endchar
        </CharString>
        <CharString name="Uhornhookabove">
          -87 callsubr
          139 1798 -64 callsubr
        </CharString>
        <CharString name="Uhorntilde">
          -87 callsubr
          434 1570 -103 callgsubr
          endchar
        </CharString>
        <CharString name="Uhungarumlaut">
          -104 callsubr
          546 1582 2 callsubr
        </CharString>
        <CharString name="Uinvertedbreve">
          -104 callsubr
          602 1564 -59 callsubr
        </CharString>
        <CharString name="Umacron">
          -104 callsubr
          642 1782 -79 callgsubr
        </CharString>
        <CharString name="Umacrondieresis">
          -104 callsubr
          607 1618 29 callsubr
        </CharString>
        <CharString name="Uogonek">
          251 903 -421 rmoveto
          28 136 rlineto
          -8 -19 -26 -4 -28 hhcurveto
          -62 -36 27 47 77 93 98 169 89 hvcurveto
          164 87 113 136 43 199 208 980 rcurveline
          -228 hlineto
          -198 -931 rlineto
          -205 -45 -151 -119 -198 hhcurveto
          -209 -108 102 162 -6 hvcurveto
          37 3 40 10 43 vhcurveto
          183 871 rlineto
          -227 hlineto
          -185 -881 -9 -44 -5 -44 1 -41 rlinecurve
          -259 1 187 -198 337 hhcurveto
          26 30 2 1 10 hvcurveto
          -4 vlineto
          -129 -77 -61 -86 -91 vvcurveto
          -99 81 -65 120 113 callgsubr
          endchar
        </CharString>
        <CharString name="Upsilondieresisgreek">
          95 694 hmoveto
          -85 callsubr
          283 1604 -105 callgsubr
        </CharString>
        <CharString name="Upsilongreek">
          95 694 hmoveto
          -85 callsubr
          endchar
        </CharString>
        <CharString name="Upsilontonosgreek">
          562 277 -2 callgsubr
          743 -1443 45 callsubr
        </CharString>
        <CharString name="Uring">
          -104 callsubr
          309 1583 rmoveto
          -90 callgsubr
        </CharString>
        <CharString name="Ushortcyrillic">
          -73 callsubr
          357 1860 -75 callsubr
        </CharString>
        <CharString name="Utilde">
          -104 callsubr
          422 1569 -103 callgsubr
          endchar
        </CharString>
        <CharString name="Utildeacute">
          -104 callsubr
          250 1891 rmoveto
          180 hlineto
          246 216 rlineto
          -207 hlineto
          -56 -544 -49 callgsubr
          endchar
        </CharString>
        <CharString name="Utildebelow">
          -104 callsubr
          26 -425 -103 callgsubr
          endchar
        </CharString>
        <CharString name="V">
          129 15 callsubr
          endchar
        </CharString>
        <CharString name="Vdotbelow">
          128 15 callsubr
          58 -52 callgsubr
        </CharString>
        <CharString name="Vecyrillic">
          134 708 -83 callgsubr
          endchar
        </CharString>
        <CharString name="Vtilde">
          128 15 callsubr
          599 1546 -103 callgsubr
          endchar
        </CharString>
        <CharString name="W">
          725 1118 -73 callgsubr
          endchar
        </CharString>
        <CharString name="Wacute">
          725 1118 -73 callgsubr
          727 1559 -83 callsubr
        </CharString>
        <CharString name="Wcircumflex">
          725 1118 -73 callgsubr
          768 1861 -70 callsubr
        </CharString>
        <CharString name="Wdieresis">
          725 1118 -73 callgsubr
          471 1604 -105 callgsubr
        </CharString>
        <CharString name="Wdotaccent">
          725 1118 -73 callgsubr
          666 1609 -102 callsubr
        </CharString>
        <CharString name="Wdotbelow">
          725 1118 -73 callgsubr
          241 -52 callgsubr
        </CharString>
        <CharString name="Wgrave">
          725 1118 -73 callgsubr
          534 1559 rmoveto
          169 -37 callgsubr
          endchar
        </CharString>
        <CharString name="X">
          143 -28 31 callsubr
        </CharString>
        <CharString name="Xacyrillic">
          153 -23 31 callsubr
        </CharString>
        <CharString name="Xdieresis">
          143 -28 hmoveto
          -54 callgsubr
          152 872 -105 callgsubr
        </CharString>
        <CharString name="Xdotaccent">
          143 -28 hmoveto
          -54 callgsubr
          347 877 -102 callsubr
        </CharString>
        <CharString name="Xigreek">
          69 338 71 callsubr
          -42 -210 rlineto
          1069 hlineto
          42 210 rlineto
          -258 -812 rmoveto
          41 201 rlineto
          -895 hlineto
          -42 -201 rlineto
          -180 -421 rmoveto
          -42 -210 rlineto
          1070 hlineto
          42 210 rlineto
          endchar
        </CharString>
        <CharString name="Y">
          96 694 hmoveto
          -85 callsubr
          endchar
        </CharString>
        <CharString name="Yacute">
          95 694 hmoveto
          -85 callsubr
          539 1559 -83 callsubr
        </CharString>
        <CharString name="Ycircumflex">
          95 694 hmoveto
          -85 callsubr
          580 1861 -70 callsubr
        </CharString>
        <CharString name="Ydieresis">
          95 694 hmoveto
          -85 callsubr
          283 1604 -105 callgsubr
        </CharString>
        <CharString name="Ydotaccent">
          95 694 hmoveto
          -85 callsubr
          478 1609 -102 callsubr
        </CharString>
        <CharString name="Ydotbelow">
          95 694 hmoveto
          -85 callsubr
          43 -52 callgsubr
        </CharString>
        <CharString name="Yericyrillic">
          -66 callsubr
          endchar
        </CharString>
        <CharString name="Ygrave">
          95 694 hmoveto
          -85 callsubr
          346 1559 rmoveto
          169 -37 callgsubr
          endchar
        </CharString>
        <CharString name="Yhookabove">
          95 694 hmoveto
          -85 callsubr
          297 1774 -64 callsubr
        </CharString>
        <CharString name="Yicyrillic">
          -686 301 hmoveto
          -91 callsubr
          287 1604 -105 callgsubr
        </CharString>
        <CharString name="Yicyrillic.1">
          -236 964 1604 rmoveto
          65 52 52 65 65 -52 52 -65 -65 -52 -52 -65 -65 52 -52 65 hvcurveto
          -380 0 rmoveto
          65 52 52 65 65 -52 52 -65 -65 -52 -52 -65 -65 52 -52 65 hvcurveto
          482 -355 rmoveto
          40 194 rlineto
          -273 hlineto
          -227 hlineto
          -272 hlineto
          -40 -194 rlineto
          271 hlineto
          -225 -1055 rlineto
          -274 hlineto
          -39 -194 rlineto
          272 hlineto
          227 hlineto
          273 hlineto
          39 194 rlineto
          -271 hlineto
          225 1055 rlineto
          endchar
        </CharString>
        <CharString name="Ymacron">
          95 694 hmoveto
          -85 callsubr
          812 1759 -79 callgsubr
        </CharString>
        <CharString name="Ytilde">
          95 694 hmoveto
          -85 callsubr
          592 1546 -103 callgsubr
          endchar
        </CharString>
        <CharString name="Z">
          74 28 hmoveto
          -61 callsubr
          endchar
        </CharString>
        <CharString name="Zacute">
          74 28 hmoveto
          -61 callsubr
          929 1398 -83 callsubr
        </CharString>
        <CharString name="Zcaron">
          74 28 hmoveto
          -61 callsubr
          752 1393 -87 callgsubr
        </CharString>
        <CharString name="Zcircumflex">
          74 28 hmoveto
          -61 callsubr
          970 1700 -70 callsubr
        </CharString>
        <CharString name="Zdotaccent">
          74 28 hmoveto
          -61 callsubr
          868 1448 -102 callsubr
        </CharString>
        <CharString name="Zdotbelow">
          74 28 hmoveto
          -61 callsubr
          479 -606 -102 callsubr
        </CharString>
        <CharString name="Zecyrillic">
          22 460 645 -80 callgsubr
          endchar
        </CharString>
        <CharString name="Zetagreek">
          74 28 hmoveto
          -61 callsubr
          endchar
        </CharString>
        <CharString name="Zhecyrillic">
          835 986 -44 callgsubr
          endchar
        </CharString>
        <CharString name="Zlinebelow">
          74 28 hmoveto
          -61 callsubr
          824 -404 -79 callgsubr
        </CharString>
        <CharString name="a">
          -107 callgsubr
          endchar
        </CharString>
        <CharString name="a.1">
          -19 559 -106 callgsubr
          endchar
        </CharString>
        <CharString name="aacute">
          -107 callgsubr
          402 1242 -77 callgsubr
          endchar
        </CharString>
        <CharString name="aacute.1">
          -19 559 -106 callgsubr
          74 1224 -77 callgsubr
          endchar
        </CharString>
        <CharString name="abreve">
          -107 callgsubr
          33 1546 -68 callgsubr
        </CharString>
        <CharString name="abreve.1">
          -19 559 -106 callgsubr
          -295 -4 callsubr
        </CharString>
        <CharString name="abreveacute">
          -107 callgsubr
          272 1572 123 callsubr
          295 292 rlineto
          -199 hlineto
          157 -323 -84 callgsubr
          endchar
        </CharString>
        <CharString name="abreveacute.1">
          -19 559 -106 callgsubr
          -55 1554 123 callsubr
          295 292 rlineto
          -199 hlineto
          157 -323 -84 callgsubr
          endchar
        </CharString>
        <CharString name="abrevedotbelow">
          -107 callgsubr
          33 1546 -81 callgsubr
          -141 -1973 -102 callsubr
        </CharString>
        <CharString name="abrevedotbelow.1">
          -19 559 -106 callgsubr
          -295 1528 -81 callgsubr
          -183 -1973 -102 callsubr
        </CharString>
        <CharString name="abrevegrave">
          -107 callgsubr
          463 1571 6 callsubr
          390 -30 -84 callgsubr
          endchar
        </CharString>
        <CharString name="abrevegrave.1">
          -19 559 -106 callgsubr
          136 1553 6 callsubr
          390 -30 -84 callgsubr
          endchar
        </CharString>
        <CharString name="abrevehookabove">
          -107 callgsubr
          228 1759 rmoveto
          12 34 32 5 35 hhcurveto
          45 30 -23 -34 -41 -49 -49 -59 -21 hvcurveto
          59 -86 rlineto
          104 34 85 101 95 vvcurveto
          85 -66 54 -107 -39 -50 -10 -13 -30 vhcurveto
          447 -327 -84 callgsubr
          endchar
        </CharString>
        <CharString name="abrevehookabove.1">
          -19 559 -106 callgsubr
          -99 1741 rmoveto
          12 34 32 5 35 hhcurveto
          45 30 -23 -34 -41 -49 -49 -59 -21 hvcurveto
          59 -86 rlineto
          104 34 85 101 95 vvcurveto
          85 -66 54 -107 -39 -50 -10 -13 -30 vhcurveto
          447 -327 -84 callgsubr
          endchar
        </CharString>
        <CharString name="abrevetilde">
          -107 callgsubr
          699 1541 -84 callgsubr
          -166 65 rmoveto
          115 95 98 157 30 hvcurveto
          -132 hlineto
          -81 -18 -35 -44 -44 -79 -29 142 -136 hhcurveto
          -119 -92 -93 -160 -29 hvcurveto
          132 hlineto
          78 14 38 45 45 77 30 -142 137 hhcurveto
          endchar
        </CharString>
        <CharString name="abrevetilde.1">
          -19 559 -106 callgsubr
          372 1523 -84 callgsubr
          -166 65 rmoveto
          115 95 98 157 30 hvcurveto
          -132 hlineto
          -81 -18 -35 -44 -44 -79 -29 142 -136 hhcurveto
          -119 -92 -93 -160 -29 hvcurveto
          132 hlineto
          78 14 38 45 45 77 30 -142 137 hhcurveto
          endchar
        </CharString>
        <CharString name="acaron">
          -107 callgsubr
          396 1238 -82 callsubr
        </CharString>
        <CharString name="acaron.1">
          -19 559 -106 callgsubr
          68 1220 -82 callsubr
        </CharString>
        <CharString name="acircumflex">
          -107 callgsubr
          454 1546 -60 callgsubr
        </CharString>
        <CharString name="acircumflex.1">
          -19 559 -106 callgsubr
          126 2 callgsubr
        </CharString>
        <CharString name="acircumflexacute">
          -107 callgsubr
          434 1526 -66 callgsubr
          -116 339 77 callgsubr
          295 292 rlineto
          -199 hlineto
          endchar
        </CharString>
        <CharString name="acircumflexacute.1">
          -19 559 -106 callgsubr
          107 1508 -66 callgsubr
          -116 339 77 callgsubr
          295 292 rlineto
          -199 hlineto
          endchar
        </CharString>
        <CharString name="acircumflexdotbelow">
          -107 callgsubr
          454 1546 -78 callgsubr
          -621 -1665 -102 callsubr
        </CharString>
        <CharString name="acircumflexdotbelow.1">
          -19 559 -106 callgsubr
          126 1528 -78 callgsubr
          -663 -1665 -102 callsubr
        </CharString>
        <CharString name="acircumflexgrave">
          -107 callgsubr
          722 1571 6 callsubr
          -134 -45 -66 callgsubr
          endchar
        </CharString>
        <CharString name="acircumflexgrave.1">
          -19 559 -106 callgsubr
          395 1553 6 callsubr
          -134 -45 -66 callgsubr
          endchar
        </CharString>
        <CharString name="acircumflexhookabove">
          -107 callgsubr
          450 1751 -48 callgsubr
        </CharString>
        <CharString name="acircumflexhookabove.1">
          -19 559 -106 callgsubr
          123 1733 -48 callgsubr
        </CharString>
        <CharString name="acircumflextilde">
          -107 callgsubr
          433 1521 -60 callsubr
        </CharString>
        <CharString name="acircumflextilde.1">
          -19 559 -106 callgsubr
          106 1503 -60 callsubr
        </CharString>
        <CharString name="acute">
          -106 705 1224 -77 callgsubr
          endchar
        </CharString>
        <CharString name="acutecmb">
          294 1224 -77 callgsubr
          endchar
        </CharString>
        <CharString name="acutecmb.short">
          363 1559 -83 callsubr
        </CharString>
        <CharString name="acutedotaccentcmb">
          409 1224 -77 callgsubr
          -195 -16 -72 callsubr
        </CharString>
        <CharString name="acutedotaccentcmb.short">
          495 1560 rmoveto
          325 296 rlineto
          -231 hlineto
          -285 -296 rlineto
          -181 6 -102 callsubr
        </CharString>
        <CharString name="acyrillic">
          -107 callgsubr
          endchar
        </CharString>
        <CharString name="acyrillic.1">
          -10 564 -106 callgsubr
          endchar
        </CharString>
        <CharString name="adblgrave">
          -107 callgsubr
          227 1242 -43 callsubr
        </CharString>
        <CharString name="adblgrave.1">
          -19 559 -106 callgsubr
          -101 1224 -43 callsubr
        </CharString>
        <CharString name="adieresis">
          -107 callgsubr
          136 1243 -105 callgsubr
        </CharString>
        <CharString name="adieresis.1">
          -19 559 -106 callgsubr
          -192 1225 -105 callgsubr
        </CharString>
        <CharString name="adieresismacron">
          -107 callgsubr
          134 1230 -37 callsubr
        </CharString>
        <CharString name="adieresismacron.1">
          -19 559 -106 callgsubr
          -193 1212 -37 callsubr
        </CharString>
        <CharString name="adotaccent">
          -107 callgsubr
          326 1239 -72 callsubr
        </CharString>
        <CharString name="adotaccent.1">
          -19 559 -106 callgsubr
          -2 1221 -72 callsubr
        </CharString>
        <CharString name="adotbelow">
          -107 callgsubr
          37 -427 -102 callsubr
        </CharString>
        <CharString name="adotbelow.1">
          -19 559 -106 callgsubr
          -333 -52 callgsubr
        </CharString>
        <CharString name="adotmacron">
          -107 callgsubr
          325 1219 -5 callgsubr
        </CharString>
        <CharString name="adotmacron.1">
          -19 559 -106 callgsubr
          -2 1201 -5 callgsubr
        </CharString>
        <CharString name="ae">
          569 1224 -89 callgsubr
          endchar
        </CharString>
        <CharString name="aeacute">
          569 1224 -89 callgsubr
          685 1066 -77 callgsubr
          endchar
        </CharString>
        <CharString name="aemacron">
          569 1224 -89 callgsubr
          928 1254 -76 callgsubr
        </CharString>
        <CharString name="agrave">
          -107 callgsubr
          392 1242 -35 callgsubr
        </CharString>
        <CharString name="agrave.1">
          -19 559 -106 callgsubr
          64 1224 -35 callgsubr
        </CharString>
        <CharString name="ahookabove">
          -107 callgsubr
          185 1468 -63 callgsubr
        </CharString>
        <CharString name="ahookabove.1">
          -19 559 -106 callgsubr
          -142 1450 -63 callgsubr
        </CharString>
        <CharString name="ainvertedbreve">
          -107 callgsubr
          631 1225 -59 callgsubr
        </CharString>
        <CharString name="ainvertedbreve.1">
          -19 559 -106 callgsubr
          304 1207 -59 callgsubr
        </CharString>
        <CharString name="alphagreek">
          -18 callgsubr
          endchar
        </CharString>
        <CharString name="alphatonosgreek">
          -18 callgsubr
          81 1041 10 callgsubr
        </CharString>
        <CharString name="amacron">
          -107 callgsubr
          645 1430 -76 callgsubr
        </CharString>
        <CharString name="amacron.1">
          -19 559 -106 callgsubr
          317 1412 -76 callgsubr
        </CharString>
        <CharString name="ampersand">
          207 585 1104 rmoveto
          110 92 89 113 100 72 -57 -90 -100 -80 -104 -198 -62 vhcurveto
          -70 93 -29 62 59 vvcurveto
          -9 -951 rmoveto
          -183 -114 101 136 115 88 98 167 60 hvcurveto
          2 1 49 17 3 1 300 -443 rcurveline
          -63 -94 -120 -23 -98 hhcurveto
          465 -153 rmoveto
          246 hlineto
          -145 219 120 127 80 163 17 202 rlinecurve
          5 51 rlineto
          -196 hlineto
          -3 -45 -11 -139 -46 -110 -72 -86 rlinecurve
          -264 377 rlineto
          271 95 118 154 168 vvcurveto
          170 -156 126 -211 -234 -176 -158 -197 -85 35 -88 81 -117 vhcurveto
          -66 -27 rlineto
          -247 -96 -121 -145 -187 vvcurveto
          -227 218 -172 278 158 149 41 73 114 vhcurveto
          endchar
        </CharString>
        <CharString name="anoteleia">
          -653 330 480 rmoveto
          -2 callsubr
          endchar
        </CharString>
        <CharString name="aogonek">
          -144 460 166 rmoveto
          -109 -73 54 82 93 85 61 141 6 hvcurveto
          267 13 -24 -106 rlineto
          -121 -27 -116 -82 -144 hhcurveto
          315 -574 rmoveto
          28 136 rlineto
          -8 -20 -25 -4 -28 hhcurveto
          -59 -38 27 46 72 99 84 135 47 hvcurveto
          14 4 145 685 rlineto
          5 22 3 31 35 vvcurveto
          178 -161 122 -235 -240 -179 -128 -198 -33 vhcurveto
          213 hlineto
          89 21 82 52 119 hhcurveto
          124 76 -53 -89 -21 -1 -11 -3 -14 hvcurveto
          -14 -64 -295 -14 rlineto
          -283 -12 -159 -125 -207 vvcurveto
          -162 139 -123 184 134 108 50 89 68 vhcurveto
          4 hlineto
          -26 -122 rlineto
          -148 -80 -77 -89 -105 vvcurveto
          -96 79 -66 121 54 49 10 12 20 vhcurveto
          endchar
        </CharString>
        <CharString name="aogonek.1">
          -19 559 171 rmoveto
          -146 -90 109 169 245 138 187 190 150 99 -110 -157 -250 -144 -193 -197 hvcurveto
          334 -579 91 callsubr
          91 85 143 50 hvcurveto
          13 4 225 1059 rlineto
          -207 hlineto
          -45 -211 rlineto
          -8 hlineto
          136 -38 -127 93 -166 hhcurveto
          -300 -225 -280 -363 -271 149 -177 236 133 128 76 111 68 hvcurveto
          7 hlineto
          -36 -166 rlineto
          -147 -79 -76 -88 -104 103 callgsubr
        </CharString>
        <CharString name="approxequal">
          78 930 633 rmoveto
          158 122 138 203 23 -18 callsubr
          -117 -460 rmoveto
          158 123 138 203 22 -18 callsubr
          endchar
        </CharString>
        <CharString name="approxequal.uc">
          78 956 763 rmoveto
          158 122 138 203 23 -18 callsubr
          -117 -460 rmoveto
          158 123 138 203 22 -18 callsubr
          endchar
        </CharString>
        <CharString name="aring">
          -107 callgsubr
          328 1190 rmoveto
          -90 callgsubr
        </CharString>
        <CharString name="aring.1">
          -19 559 -106 callgsubr
          1172 vmoveto
          -90 callgsubr
        </CharString>
        <CharString name="aringacute">
          -107 callgsubr
          311 1677 -27 callgsubr
        </CharString>
        <CharString name="aringacute.1">
          -19 559 -106 callgsubr
          -16 1659 -27 callgsubr
        </CharString>
        <CharString name="aringbelow">
          -107 callgsubr
          35 -493 rmoveto
          -90 callgsubr
        </CharString>
        <CharString name="aringbelow.1">
          -19 559 -106 callgsubr
          -335 -511 rmoveto
          -90 callgsubr
        </CharString>
        <CharString name="asciicircum">
          -259 629 1244 rmoveto
          17 hlineto
          110 -430 rlineto
          196 hlineto
          -171 619 -7 callsubr
          -437 -619 rlineto
          200 hlineto
          endchar
        </CharString>
        <CharString name="asciitilde">
          79 888 425 rmoveto
          162 132 127 240 31 hvcurveto
          -192 hlineto
          -111 -21 -46 -53 -69 -112 -50 217 -202 hhcurveto
          -160 -136 -126 -241 -31 hvcurveto
          191 hlineto
          112 22 43 51 70 114 49 -216 205 hhcurveto
          endchar
        </CharString>
        <CharString name="asterisk">
          -206 924 833 rmoveto
          88 122 -237 153 286 100 -53 145 -263 -130 65 279 -149 16 -36 -294 -217 186 -88 -123 229 -150 -278 -98 52 -143 268 130 -65 -282 148 -16 34 288 rlineto
          endchar
        </CharString>
        <CharString name="asterisk.uc">
          78 1102 287 rmoveto
          114 156 -364 238 439 153 -64 184 -411 -192 96 434 -184 20 -56 -452 -340 278 -114 -155 361 -237 -429 -147 64 -187 414 198 -98 -437 184 -21 57 437 rlineto
          endchar
        </CharString>
        <CharString name="at">
          612 1049 1440 -32 callgsubr
        </CharString>
        <CharString name="at.uc">
          612 1075 1562 -32 callgsubr
        </CharString>
        <CharString name="atilde">
          -107 callgsubr
          449 1244 -103 callgsubr
          endchar
        </CharString>
        <CharString name="atilde.1">
          -19 559 -106 callgsubr
          121 1226 -103 callgsubr
          endchar
        </CharString>
        <CharString name="austral">
          78 964 hmoveto
          223 hlineto
          -50 379 rlineto
          95 hlineto
          31 147 rlineto
          -144 hlineto
          -23 162 rlineto
          201 hlineto
          31 147 rlineto
          -250 hlineto
          -76 608 rlineto
          -239 hlineto
          -338 -608 rlineto
          -261 hlineto
          -31 -147 rlineto
          213 hlineto
          -92 -162 rlineto
          -155 hlineto
          -31 -147 rlineto
          106 hlineto
          -217 -379 rlineto
          235 hlineto
          207 379 rlineto
          524 hlineto
          -99 796 rmoveto
          17 hlineto
          37 -341 rlineto
          -240 hlineto
          272 -308 rmoveto
          -435 hlineto
          88 163 rlineto
          328 hlineto
          endchar
        </CharString>
        <CharString name="b">
          -52 callsubr
          endchar
        </CharString>
        <CharString name="backslash">
          -505 331 -309 102 callgsubr
        </CharString>
        <CharString name="backslash.uc">
          -505 364 -153 102 callgsubr
        </CharString>
        <CharString name="baht">
          78 718 657 rmoveto
          149 -9 75 -69 -124 vvcurveto
          -150 -137 -110 -186 -2 vhcurveto
          -299 0 rmoveto
          101 465 rlineto
          161 hlineto
          -99 -465 rlineto
          66 1062 rmoveto
          160 hlineto
          -90 -421 rlineto
          -161 hlineto
          386 416 rmoveto
          114 -16 55 -58 -98 vvcurveto
          -127 -96 -93 -161 -20 vhcurveto
          166 -79 rmoveto
          189 35 128 149 185 vvcurveto
          180 -138 121 -217 13 vhcurveto
          33 153 rlineto
          -136 hlineto
          -32 -152 rlineto
          -386 hlineto
          -307 -1443 rlineto
          386 hlineto
          -30 -140 rlineto
          136 hlineto
          30 140 rlineto
          55 hlineto
          315 223 191 266 149 -104 107 -149 29 hvcurveto
          endchar
        </CharString>
        <CharString name="bar">
          -505 308 -309 86 callgsubr
        </CharString>
        <CharString name="bar.uc">
          -505 341 -153 86 callgsubr
        </CharString>
        <CharString name="bdotaccent">
          -52 callsubr
          -98 1435 -102 callsubr
        </CharString>
        <CharString name="bdotbelow">
          -52 callsubr
          -159 -618 -102 callsubr
        </CharString>
        <CharString name="becyrillic">
          -48 726 1039 rmoveto
          -147 -109 -59 -127 -93 hvcurveto
          -16 hlineto
          82 252 122 107 218 11 rrcurveto
          19 114 6 1 hhcurveto
          141 7 91 16 49 27 40 196 rcurveline
          -51 -23 -120 -22 -121 -7 rrcurveto
          -2 -115 -6 -15 hhcurveto
          -342 -20 -191 -164 -112 -369 -33 -110 -18 -117 -1 -116 rrcurveto
          -332 -2 176 -209 280 hhcurveto
          331 216 248 372 3 hvcurveto
          261 2 -159 178 -238 hhcurveto
          -142 -870 rmoveto
          -153 -101 118 166 1 hvcurveto
          237 1 135 165 197 hhcurveto
          151 86 -110 -183 hvcurveto
          -215 -1 -142 -178 -174 hhcurveto
          endchar
        </CharString>
        <CharString name="betagreek">
          -22 251 1007 rmoveto
          -290 -1356 rlineto
          212 hlineto
          120 561 rlineto
          6 hlineto
          -139 43 142 -91 166 hhcurveto
          327 171 224 247 162 -73 116 -177 47 hvcurveto
          4 vlineto
          170 56 82 128 161 vvcurveto
          203 -162 133 -241 -278 -154 -146 -310 -64 vhcurveto
          296 -328 rmoveto
          109 hlineto
          178 101 -86 -148 -158 -140 -114 -155 -170 -126 99 151 19 5 40 10 44 hvcurveto
          104 484 rlineto
          186 40 106 80 123 hhcurveto
          138 76 -73 -106 -144 -105 -92 -163 hvcurveto
          -94 hlineto
          endchar
        </CharString>
        <CharString name="bitcoin">
          78 360 214 rmoveto
          97 446 rlineto
          243 hlineto
          165 82 -67 -127 -145 -133 -107 -182 hvcurveto
          -51 1020 rmoveto
          198 hlineto
          160 76 -57 -114 -137 -118 -96 -191 hvcurveto
          -213 hlineto
          435 -72 rmoveto
          182 33 123 143 178 vvcurveto
          152 -103 108 -167 32 vhcurveto
          43 202 rlineto
          -130 hlineto
          -41 -192 rlineto
          -141 hlineto
          41 192 rlineto
          -131 hlineto
          -40 -192 rlineto
          -160 hlineto
          -295 -1385 rlineto
          160 hlineto
          -41 -194 rlineto
          130 hlineto
          42 194 rlineto
          141 hlineto
          -41 -194 rlineto
          130 hlineto
          41 194 rlineto
          292 8 204 181 250 vvcurveto
          143 -100 102 -143 28 vhcurveto
          endchar
        </CharString>
        <CharString name="blinebelow">
          -52 callsubr
          186 -416 -79 callgsubr
        </CharString>
        <CharString name="braceleft">
          -505 224 243 -17 callsubr
        </CharString>
        <CharString name="braceleft.uc">
          -505 256 397 -17 callsubr
        </CharString>
        <CharString name="braceright">
          -505 574 890 -16 callgsubr
        </CharString>
        <CharString name="braceright.uc">
          -505 607 1044 -16 callgsubr
        </CharString>
        <CharString name="bracketleft">
          -505 432 71 callsubr
          -374 -1752 rlineto
          478 hlineto
          35 173 rlineto
          -269 hlineto
          304 1405 rlineto
          269 hlineto
          35 174 rlineto
          endchar
        </CharString>
        <CharString name="bracketleft.uc">
          -505 465 1597 rmoveto
          -374 -1752 rlineto
          478 hlineto
          35 173 rlineto
          -269 hlineto
          304 1405 rlineto
          269 hlineto
          35 174 rlineto
          endchar
        </CharString>
        <CharString name="bracketright">
          -505 365 -309 53 callsubr
        </CharString>
        <CharString name="bracketright.uc">
          -505 398 -155 53 callsubr
        </CharString>
        <CharString name="breve">
          -106 467 -4 callsubr
        </CharString>
        <CharString name="breveacutecmb">
          165 1559 123 callsubr
          295 292 rlineto
          -199 hlineto
          157 -323 -84 callgsubr
          endchar
        </CharString>
        <CharString name="breveacutecmb.short">
          215 1853 -1 callgsubr
          -172 -543 -40 callgsubr
        </CharString>
        <CharString name="brevebelowcmb">
          -432 -153 1 callgsubr
        </CharString>
        <CharString name="brevecmb">
          -75 -4 callsubr
        </CharString>
        <CharString name="brevecmb.short">
          -6 1853 rmoveto
          -74 callgsubr
          endchar
        </CharString>
        <CharString name="brevecyrillic">
          -185 416 1545 -85 callgsubr
        </CharString>
        <CharString name="brevecyrillic.short">
          -30 1849 -75 callsubr
        </CharString>
        <CharString name="brevegravecmb">
          356 1558 6 callsubr
          390 -30 -84 callgsubr
          endchar
        </CharString>
        <CharString name="brevegravecmb.short">
          416 1853 23 callgsubr
        </CharString>
        <CharString name="brevehookabovecmb">
          121 1746 rmoveto
          12 34 32 5 35 hhcurveto
          45 30 -23 -34 -41 -49 -49 -59 -21 hvcurveto
          59 -86 rlineto
          104 34 85 101 95 vvcurveto
          85 -66 54 -107 -39 -50 -10 -13 -30 vhcurveto
          447 -327 -84 callgsubr
          endchar
        </CharString>
        <CharString name="brevehookabovecmb.short">
          153 2026 rmoveto
          7 27 28 3 33 hhcurveto
          61 35 -24 -40 -45 -46 -36 -66 -13 hvcurveto
          73 -86 rlineto
          111 32 71 78 92 vvcurveto
          94 -81 62 -121 -30 -44 -5 -8 -24 vhcurveto
          86 -596 -40 callgsubr
        </CharString>
        <CharString name="brevetildecmb">
          592 1528 -84 callgsubr
          -166 65 rmoveto
          115 95 98 157 30 hvcurveto
          -132 hlineto
          -81 -18 -35 -44 -44 -79 -29 142 -136 hhcurveto
          -119 -92 -93 -160 -29 hvcurveto
          132 hlineto
          78 14 38 45 45 77 30 -142 137 hhcurveto
          endchar
        </CharString>
        <CharString name="brevetildecmb.short">
          475 1852 -6 callsubr
        </CharString>
        <CharString name="brokenbar">
          -505 539 774 51 callgsubr
        </CharString>
        <CharString name="brokenbar.uc">
          -505 573 930 51 callgsubr
        </CharString>
        <CharString name="bullet">
          -206 547 233 15 callgsubr
        </CharString>
        <CharString name="bullet.uc">
          -206 581 393 15 callgsubr
        </CharString>
        <CharString name="c">
          -131 658 1076 -93 callsubr
          endchar
        </CharString>
        <CharString name="cacute">
          -131 658 1076 -93 callsubr
          146 148 -77 callgsubr
          endchar
        </CharString>
        <CharString name="caron">
          -106 818 1220 -82 callsubr
        </CharString>
        <CharString name="caroncmb">
          288 1220 -82 callsubr
        </CharString>
        <CharString name="caroncmb.short">
          186 1554 -87 callgsubr
        </CharString>
        <CharString name="carondotaccentcmb">
          122 1220 33 callsubr
        </CharString>
        <CharString name="carondotaccentcmb.short">
          169 1539 34 callgsubr
        </CharString>
        <CharString name="caronslovak">
          -184 647 42 callsubr
          endchar
        </CharString>
        <CharString name="ccaron">
          -131 658 1076 -93 callsubr
          140 144 -82 callsubr
        </CharString>
        <CharString name="ccedilla">
          -131 1086 684 rmoveto
          1 5 0 0 13 vvcurveto
          198 -152 176 -277 -327 -223 -270 -367 -242 126 -177 233 -34 vhcurveto
          -75 -127 -19 -85 rlineto
          59 hlineto
          104 43 -18 -41 -41 -44 -23 -79 -46 -48 8 14 -39 hvcurveto
          -26 -125 rlineto
          -15 41 70 -11 59 hhcurveto
          155 105 84 123 93 -66 53 -113 hvcurveto
          66 109 206 25 163 151 43 197 rlinecurve
          -209 hlineto
          -113 -39 -94 -73 -127 hhcurveto
          -140 -92 105 172 256 135 180 192 142 82 -89 -111 4 hvcurveto
          endchar
        </CharString>
        <CharString name="ccedillaacute">
          -131 1119 1529 rmoveto
          -224 hlineto
          -278 -305 rlineto
          187 hlineto
          -412 -1365 rmoveto
          -19 -85 rlineto
          59 hlineto
          104 43 -18 -41 -41 -44 -23 -79 -46 -48 8 14 -39 hvcurveto
          -26 -125 rlineto
          -15 41 70 -11 59 hhcurveto
          155 105 84 123 93 -66 53 -113 hvcurveto
          66 109 206 25 163 151 43 197 rlinecurve
          -209 hlineto
          -113 -39 -94 -73 -127 hhcurveto
          -140 -92 105 172 256 135 180 192 142 82 -89 -111 4 hvcurveto
          206 hlineto
          1 5 0 0 13 vvcurveto
          198 -152 176 -277 -327 -223 -270 -367 -242 126 -177 233 -34 vhcurveto
          endchar
        </CharString>
        <CharString name="ccircumflex">
          -131 658 1076 -93 callsubr
          198 452 -60 callgsubr
        </CharString>
        <CharString name="cdotaccent">
          -131 658 1076 -93 callsubr
          70 145 -72 callsubr
        </CharString>
        <CharString name="cedi">
          78 327 585 rmoveto
          366 212 302 249 11 vhcurveto
          4 3 0 4 hhcurveto
          -232 -1075 rlineto
          -155 46 -85 147 203 vvcurveto
          950 -173 rmoveto
          -229 hlineto
          -47 -132 -120 -100 -165 -6 rrcurveto
          -3 -4 0 -3 hhcurveto
          234 1080 139 -34 82 -102 9 -145 rlinecurve
          -3 0 -3 -1 vvcurveto
          223 hlineto
          1 6 0 10 6 vvcurveto
          226 -168 198 -243 53 vhcurveto
          28 130 rlineto
          -144 hlineto
          -25 -116 rlineto
          -6 -3 0 -5 hhcurveto
          -405 -3 -327 -380 -528 vvcurveto
          -309 164 -228 263 -57 vhcurveto
          -25 -114 rlineto
          144 hlineto
          21 100 rlineto
          2 3 0 3 hhcurveto
          305 2 236 184 65 266 rrcurveto
          endchar
        </CharString>
        <CharString name="cedilla">
          -102 284 -226 -91 callgsubr
        </CharString>
        <CharString name="cedillacmb">
          -242 -226 -91 callgsubr
        </CharString>
        <CharString name="cent">
          78 1170 513 rmoveto
          -215 hlineto
          -105 -38 -94 -59 -124 hhcurveto
          -148 -100 107 186 258 146 199 201 127 99 -73 -108 9 hvcurveto
          212 hlineto
          -1 15 -1 16 -2 14 -20 139 -104 118 -152 49 37 176 rcurveline
          -197 hlineto
          -32 -156 rlineto
          -319 -24 -223 -279 -367 vvcurveto
          -223 117 -163 188 -56 vhcurveto
          -42 -200 rlineto
          197 hlineto
          38 180 232 18 170 143 39 195 rlinecurve
          endchar
        </CharString>
        <CharString name="checyrillic">
          -19 callgsubr
          endchar
        </CharString>
        <CharString name="chigreek">
          -84 854 -347 rmoveto
          54 30 5 8 28 hvcurveto
          35 174 rlineto
          -3 -16 -24 -2 -12 hhcurveto
          -74 -34 28 91 -28 hvcurveto
          -120 385 538 717 rlineto
          -221 hlineto
          -367 -502 rlineto
          -14 hlineto
          -104 336 rlineto
          125 -38 -66 46 -120 hhcurveto
          -42 -30 -4 -9 -33 hvcurveto
          -36 -174 rlineto
          3 16 25 2 14 hhcurveto
          74 26 -27 -88 28 hvcurveto
          127 -397 -539 -710 rlineto
          221 hlineto
          365 494 rlineto
          15 hlineto
          104 -337 rlineto
          -115 35 60 -46 123 hhcurveto
          endchar
        </CharString>
        <CharString name="circumflex">
          -106 884 2 callgsubr
        </CharString>
        <CharString name="circumflexacutecmb">
          327 1513 -66 callgsubr
          -116 339 77 callgsubr
          295 292 rlineto
          -199 hlineto
          endchar
        </CharString>
        <CharString name="circumflexacutecmb.short">
          20 callgsubr
          69 44 -1 callgsubr
          endchar
        </CharString>
        <CharString name="circumflexbelowcmb">
          -27 -165 -64 callgsubr
        </CharString>
        <CharString name="circumflexcmb">
          346 2 callgsubr
        </CharString>
        <CharString name="circumflexcmb.short">
          404 1861 -70 callsubr
        </CharString>
        <CharString name="circumflexgravecmb">
          615 1558 6 callsubr
          -134 -45 -66 callgsubr
          endchar
        </CharString>
        <CharString name="circumflexgravecmb.short">
          20 callgsubr
          276 44 rmoveto
          -126 54 callsubr
        </CharString>
        <CharString name="circumflexhookabovecmb">
          343 1738 -48 callgsubr
        </CharString>
        <CharString name="circumflexhookabovecmb.short">
          20 callgsubr
          30 159 rmoveto
          8 26 28 4 29 hhcurveto
          55 35 -25 -38 -45 -43 -35 -59 -14 hvcurveto
          65 -86 rlineto
          110 35 68 76 95 vvcurveto
          90 -74 58 -117 -34 -43 -6 -10 -21 vhcurveto
          endchar
        </CharString>
        <CharString name="circumflextildecmb">
          326 1508 -60 callsubr
        </CharString>
        <CharString name="circumflextildecmb.short">
          468 1852 -43 callgsubr
        </CharString>
        <CharString name="colon">
          -653 230 -11 rmoveto
          -2 callsubr
          156 730 36 callgsubr
          endchar
        </CharString>
        <CharString name="colon.uc">
          -653 279 220 rmoveto
          -2 callsubr
          156 730 36 callgsubr
          endchar
        </CharString>
        <CharString name="coloncurrency">
          78 974 1265 rmoveto
          1 11 11 0 11 hhcurveto
          43 56 -4 -7 52 hvcurveto
          -557 -973 -50 30 -43 36 -35 42 rlinecurve
          -77 145 rmoveto
          -12 43 -7 46 49 vvcurveto
          268 158 221 263 76 vhcurveto
          717 362 rmoveto
          -160 hlineto
          -86 -150 -52 10 -67 8 -58 4 rlinecurve
          73 128 rlineto
          -160 hlineto
          -72 -127 rlineto
          -498 -33 -294 -357 -435 vvcurveto
          -138 41 -123 72 -100 vhcurveto
          -262 -459 rlineto
          160 hlineto
          201 351 40 -35 46 -31 50 -26 rlinecurve
          -148 -259 rlineto
          161 hlineto
          117 204 rlineto
          -32 98 110 -17 119 hhcurveto
          47 74 6 6 25 hvcurveto
          42 206 rlineto
          -6 -31 -58 -6 -48 hhcurveto
          -98 -90 13 25 -79 hvcurveto
          endchar
        </CharString>
        <CharString name="comma">
          -653 152 -301 38 callsubr
          endchar
        </CharString>
        <CharString name="commaaccent">
          -106 385 -476 -40 callsubr
        </CharString>
        <CharString name="commabelowcmb">
          -218 -476 -40 callsubr
        </CharString>
        <CharString name="copyright">
          468 889 -153 rmoveto
          455 348 358 468 444 -321 311 -462 -454 -348 -359 -467 -443 322 -312 460 hvcurveto
          149 vmoveto
          -376 -257 247 359 383 284 294 369 379 254 -246 -361 -382 -283 -294 -370 hvcurveto
          380 781 rmoveto
          163 -5 -129 113 -185 hhcurveto
          -241 -177 -202 -275 -202 139 -141 200 175 130 95 155 37 hvcurveto
          -155 hlineto
          -75 -31 -60 -38 -86 hhcurveto
          -117 -76 85 131 189 108 142 145 96 75 -58 -82 5 hvcurveto
          endchar
        </CharString>
        <CharString name="cruzeiro">
          78 1095 -4 rmoveto
          42 205 rlineto
          -7 -35 -58 -5 -44 hhcurveto
          -47 -45 3 5 -43 hvcurveto
          56 256 rlineto
          181 39 90 85 150 hhcurveto
          37 49 -9 -11 17 hvcurveto
          46 208 rlineto
          6 -14 -41 5 -28 hhcurveto
          -127 -101 -66 -105 -55 hvcurveto
          -7 hlineto
          33 153 126 callgsubr
          -140 -649 rlineto
          -188 77 -115 148 195 vvcurveto
          343 265 247 372 105 142 -21 -23 52 vhcurveto
          43 203 rlineto
          28 -72 -153 23 -115 hhcurveto
          -516 -359 -335 -477 -396 332 -280 457 62 75 6 7 25 hvcurveto
          endchar
        </CharString>
        <CharString name="currency">
          78 457 653 rmoveto
          136 114 114 139 139 115 -114 -136 -137 -115 -114 -139 -139 -114 114 137 vhcurveto
          845 379 rmoveto
          -103 138 -230 -191 rlineto
          58 -71 -90 35 -98 hhcurveto
          -62 -58 -14 -25 -53 hvcurveto
          -107 138 -150 -129 105 -133 rlineto
          -55 -71 -32 -89 -96 vvcurveto
          -68 16 -65 29 -57 vhcurveto
          -226 -190 103 -138 231 192 rlineto
          -59 71 90 -35 98 hhcurveto
          62 59 14 25 52 hvcurveto
          106 -137 151 129 -104 132 rlineto
          55 72 32 89 96 vvcurveto
          69 -17 65 -29 57 vhcurveto
          endchar
        </CharString>
        <CharString name="cyrilliccentraldescender">
          -512 379 56 callgsubr
          endchar
        </CharString>
        <CharString name="cyrilliccentraldescendercap">
          -512 378 56 callsubr
          endchar
        </CharString>
        <CharString name="cyrillicdescender">
          -184 368 -30 callsubr
          endchar
        </CharString>
        <CharString name="cyrillicdescender.short">
          -185 344 80 callgsubr
          endchar
        </CharString>
        <CharString name="cyrillicdescendercap">
          -184 377 13 callgsubr
          endchar
        </CharString>
        <CharString name="cyrillicdescendercap.short">
          -184 324 11 callsubr
          -304 39 callgsubr
          99 hlineto
          endchar
        </CharString>
        <CharString name="cyrillichook">
          -184 165 -351 118 callsubr
          233 127 65 callsubr
          endchar
        </CharString>
        <CharString name="cyrillichookcap">
          -184 156 59 callgsubr
          50 hvcurveto
          9 40 -227 11 -7 97 callsubr
          -109 hhcurveto
          -4 -25 0 1 -2 hvcurveto
          endchar
        </CharString>
        <CharString name="cyrillictail">
          -184 273 122 callgsubr
          13 59 rlineto
          -388 108 callgsubr
          endchar
        </CharString>
        <CharString name="cyrillictailcap">
          -184 266 58 callsubr
          -40 -204 rlineto
          168 hlineto
          endchar
        </CharString>
        <CharString name="d">
          -10 491 -18 -3 callgsubr
        </CharString>
        <CharString name="dagger">
          -206 737 1100 rmoveto
          250 hlineto
          37 183 rlineto
          -250 hlineto
          57 268 rlineto
          -185 hlineto
          -57 -268 rlineto
          -250 hlineto
          -37 -183 125 callsubr
          -116 -539 rlineto
          185 hlineto
          endchar
        </CharString>
        <CharString name="daggerdbl">
          -206 917 774 rmoveto
          35 173 75 callsubr
          24 107 23 106 rlineto
          251 hlineto
          36 173 rlineto
          -250 hlineto
          47 218 rlineto
          -185 hlineto
          -47 -218 rlineto
          -249 hlineto
          -36 -173 rlineto
          251 hlineto
          -23 -106 -23 -107 75 callsubr
          -35 -173 125 callsubr
          -46 -213 rlineto
          185 hlineto
          46 213 rlineto
          endchar
        </CharString>
        <CharString name="dblgrave">
          -106 770 1224 -43 callsubr
        </CharString>
        <CharString name="dblgravecmb">
          119 1224 -43 callsubr
        </CharString>
        <CharString name="dblgravecmb.short">
          19 1559 -34 callsubr
        </CharString>
        <CharString name="dcaron">
          218 1453 71 callsubr
          -105 -495 rlineto
          148 hlineto
          155 495 rlineto
          -1160 -1461 -3 callgsubr
        </CharString>
        <CharString name="dcircumflexbelow">
          -10 491 -18 -96 callsubr
          67 -336 -64 callgsubr
        </CharString>
        <CharString name="dcommaaccent">
          -10 491 -18 -96 callsubr
          -124 -647 -40 callsubr
        </CharString>
        <CharString name="dcroat">
          -10 559 171 rmoveto
          -147 -88 105 170 253 143 182 186 151 96 -110 -156 -251 -146 -193 -195 hvcurveto
          842 1171 rmoveto
          -110 hlineto
          21 101 rlineto
          -214 hlineto
          -22 -101 rlineto
          -239 hlineto
          -33 -154 rlineto
          239 hlineto
          -74 -338 rlineto
          -5 hlineto
          127 -33 -132 96 -165 hhcurveto
          -298 -229 -277 -372 -268 148 -174 236 138 127 75 106 66 hvcurveto
          5 hlineto
          -35 -163 rlineto
          213 hlineto
          253 1188 rlineto
          112 hlineto
          endchar
        </CharString>
        <CharString name="ddotaccent">
          -10 491 -18 -96 callsubr
          714 1438 -102 callsubr
        </CharString>
        <CharString name="ddotbelow">
          -10 491 -18 -96 callsubr
          -40 -616 -102 callsubr
        </CharString>
        <CharString name="decyrillic">
          6 783 179 rmoveto
          -478 hlineto
          3 17 57 60 47 98 37 130 rlinecurve
          -2 -7 116 393 1 7 rrcurveto
          370 hlineto
          249 178 rmoveto
          -769 hlineto
          -2 -7 -160 -562 3 7 -44 -156 -73 -116 -71 -42 rrcurveto
          -86 hlineto
          -95 -455 rlineto
          196 hlineto
          59 276 rlineto
          785 hlineto
          -58 -276 rlineto
          196 hlineto
          96 455 rlineto
          -163 hlineto
          endchar
        </CharString>
        <CharString name="decyrillic.1">
          -39 579 169 rmoveto
          -154 -102 122 178 1 hvcurveto
          238 1 132 168 190 hhcurveto
          155 97 -113 -171 -1 hvcurveto
          -240 -1 -134 -182 -184 hhcurveto
          52 885 rmoveto
          -309 -211 -241 -348 -287 185 -198 279 343 221 303 524 4 hvcurveto
          428 3 -195 245 -349 hhcurveto
          -125 -92 -34 -5 -14 hvcurveto
          -37 -193 rlineto
          27 54 96 19 80 hhcurveto
          227 147 -150 -250 13 hvcurveto
          -11 hlineto
          100 -62 -113 60 -134 hhcurveto
          endchar
        </CharString>
        <CharString name="degree">
          -449 553 856 rmoveto
          166 131 132 169 168 -131 133 -166 -167 -129 -133 -168 -169 129 -132 167 hvcurveto
          149 vmoveto
          -81 -72 70 82 84 72 68 81 85 68 -68 -84 -82 -67 -70 -86 hvcurveto
          endchar
        </CharString>
        <CharString name="deltagreek">
          -92 530 -20 rmoveto
          370 195 271 301 183 -84 134 -253 151 hvcurveto
          -128 70 -26 31 48 vvcurveto
          70 59 38 106 121 114 -32 -60 100 vhcurveto
          43 176 rlineto
          59 -71 -143 37 -149 hhcurveto
          -247 -151 -108 -175 -90 47 -80 108 -60 hvcurveto
          -1 -2 rlineto
          -1 vlineto
          -292 -41 -169 -206 -282 vvcurveto
          -261 185 -171 266 vhcurveto
          17 177 rmoveto
          -144 -107 106 160 241 151 145 184 148 96 -99 -158 -234 -139 -161 -189 hvcurveto
          endchar
        </CharString>
        <CharString name="dieresis">
          -106 575 1225 -105 callgsubr
        </CharString>
        <CharString name="dieresisacutecmb">
          162 1559 77 callgsubr
          294 292 rlineto
          -199 hlineto
          -403 -634 -105 callgsubr
        </CharString>
        <CharString name="dieresisacutecmb.short">
          220 1853 -1 callgsubr
          -336 -529 -33 callsubr
        </CharString>
        <CharString name="dieresisbelowcmb">
          -322 -426 9 callgsubr
        </CharString>
        <CharString name="dieresiscaroncmb">
          27 1217 -46 callsubr
          -264 315 rmoveto
          168 hlineto
          331 293 rlineto
          -197 hlineto
          -203 -178 rlineto
          -6 hlineto
          -126 178 rlineto
          -174 hlineto
          endchar
        </CharString>
        <CharString name="dieresiscaroncmb.short">
          237 1842 13 callsubr
        </CharString>
        <CharString name="dieresiscmb">
          28 1225 -105 callgsubr
        </CharString>
        <CharString name="dieresiscmb.short">
          107 1604 -105 callgsubr
        </CharString>
        <CharString name="dieresisgravecmb">
          354 1558 rmoveto
          -139 293 rlineto
          -183 hlineto
          169 -293 rlineto
          -172 -341 -105 callgsubr
        </CharString>
        <CharString name="dieresisgravecmb.short">
          425 1853 rmoveto
          -125 -1 callsubr
          -160 -298 -33 callsubr
        </CharString>
        <CharString name="dieresismacroncmb">
          27 1217 -37 callsubr
        </CharString>
        <CharString name="dieresismacroncmb.short">
          104 1783 -39 callgsubr
        </CharString>
        <CharString name="dieresistonosgreek">
          196 907 1221 -41 callsubr
        </CharString>
        <CharString name="divide">
          78 1193 484 26 callgsubr
        </CharString>
        <CharString name="divide.uc">
          78 1223 632 26 callgsubr
        </CharString>
        <CharString name="djecyrillic">
          -42 449 893 rmoveto
          68 316 rlineto
          217 hlineto
          28 135 rlineto
          -216 hlineto
          23 107 rlineto
          -214 hlineto
          -23 -107 rlineto
          -144 hlineto
          -27 -135 rlineto
          143 hlineto
          -257 -1209 rlineto
          214 hlineto
          136 637 rlineto
          148 32 120 100 144 hhcurveto
          128 84 -75 -114 -29 -5 -31 -7 -34 hvcurveto
          -143 -650 -18 -85 -53 -46 -78 -1 rlinecurve
          -3 -49 0 -2 hhcurveto
          -41 -189 rlineto
          -1 31 49 -1 28 hhcurveto
          195 1 106 94 46 209 153 706 rcurveline
          9 42 5 43 40 vvcurveto
          178 -142 132 -191 -139 -129 -71 -110 -73 vhcurveto
          endchar
        </CharString>
        <CharString name="dlinebelow">
          -10 491 -18 -96 callsubr
          305 -414 -79 callgsubr
        </CharString>
        <CharString name="dollar">
          78 768 603 rmoveto
          127 -55 63 -57 -98 vvcurveto
          -126 -105 -93 -177 -4 vhcurveto
          13 699 rmoveto
          -114 47 -62 57 91 vvcurveto
          116 106 89 155 3 vhcurveto
          40 -452 rmoveto
          92 433 94 -31 60 -70 15 -100 rlinecurve
          215 hlineto
          -3 188 -135 158 -204 51 31 146 rcurveline
          -136 hlineto
          -27 -128 rlineto
          -5 -5 0 -5 hhcurveto
          -313 -204 -177 -244 -170 111 -130 194 -74 hvcurveto
          53 -20 -99 -467 -115 31 -77 76 -16 110 rlinecurve
          -218 hlineto
          10 -206 158 -155 217 -49 -28 -132 rcurveline
          136 hlineto
          25 116 rlineto
          5 5 0 5 hhcurveto
          312 224 173 272 184 -123 118 -221 86 hvcurveto
          endchar
        </CharString>
        <CharString name="dotaccent">
          -107 764 1221 -72 callsubr
        </CharString>
        <CharString name="dotaccentcmb">
          218 1221 -72 callsubr
        </CharString>
        <CharString name="dotaccentcmb.short">
          302 1609 -102 callsubr
        </CharString>
        <CharString name="dotbelowcmb">
          -134 -52 callgsubr
        </CharString>
        <CharString name="dotlessi">
          -32 callsubr
          endchar
        </CharString>
        <CharString name="dotlessj">
          -750 488 64 callsubr
          -235 -1102 rlineto
          -99 -22 -43 -39 -91 hhcurveto
          -20 -13 2 2 -20 hvcurveto
          -39 -181 rlineto
          -4 30 44 -3 22 hhcurveto
          197 1 122 95 43 199 rrcurveto
          endchar
        </CharString>
        <CharString name="dotmacroncmb">
          218 1206 -5 callgsubr
        </CharString>
        <CharString name="dotmacroncmb.short">
          294 1567 16 callsubr
        </CharString>
        <CharString name="doublebreve">
          -469 341 52 callsubr
          -94 hhcurveto
          -82 -48 37 59 8 0 8 2 9 63 callsubr
          73 17 70 106 callsubr
          164 hlineto
          5 84 callsubr
          -32 vhcurveto
          endchar
        </CharString>
        <CharString name="doublebreve.short">
          -469 422 24 callsubr
          -94 hhcurveto
          -82 -47 36 60 8 0 8 2 8 63 callsubr
          74 17 69 74 callgsubr
          164 hlineto
          5 74 callsubr
          -101 70 callgsubr
          -31 vhcurveto
          endchar
        </CharString>
        <CharString name="dzecyrillic">
          -196 186 -100 callgsubr
          endchar
        </CharString>
        <CharString name="dzhecyrillic">
          -75 940 hmoveto
          224 1055 38 callgsubr
          349 hlineto
          -59 -276 rlineto
          196 hlineto
          60 276 rlineto
          endchar
        </CharString>
        <CharString name="e">
          -99 343 633 -107 callsubr
          endchar
        </CharString>
        <CharString name="eacute">
          -99 343 633 -107 callsubr
          237 1246 -77 callgsubr
          endchar
        </CharString>
        <CharString name="ebreve">
          -99 343 633 -107 callsubr
          -132 1550 -68 callgsubr
        </CharString>
        <CharString name="ecaron">
          -99 343 633 -107 callsubr
          231 1242 -82 callsubr
        </CharString>
        <CharString name="ecedilla">
          -99 343 633 rmoveto
          149 39 105 112 151 hhcurveto
          161 69 -111 -121 -9 0 -12 -1 -8 hvcurveto
          200 -157 rmoveto
          8 48 3 57 47 vvcurveto
          275 -169 173 -266 -315 -220 -278 -350 -249 126 -181 235 -34 vhcurveto
          -74 -125 -19 -85 rlineto
          59 hlineto
          104 43 -18 -41 -41 -44 -23 -79 -46 -48 8 14 -39 hvcurveto
          -26 -125 rlineto
          -15 41 70 -11 59 hhcurveto
          155 105 84 123 93 -66 53 -113 hvcurveto
          65 107 206 24 159 140 50 184 rlinecurve
          -207 hlineto
          -102 -42 -93 -66 -131 hhcurveto
          -147 -94 108 171 11 0 12 1 12 hvcurveto
          endchar
        </CharString>
        <CharString name="ecedillabreve">
          -99 943 1528 rmoveto
          -118 -26 -94 -71 -110 hhcurveto
          -95 -59 53 89 17 3 16 4 14 hvcurveto
          -145 hlineto
          -5 -22 -4 -23 -25 vvcurveto
          -146 121 -100 158 211 145 120 196 43 vhcurveto
          -747 -895 rmoveto
          149 39 105 112 151 hhcurveto
          161 69 -111 -121 -9 0 -12 -1 -8 hvcurveto
          -472 -774 rmoveto
          -19 -85 rlineto
          59 hlineto
          104 43 -18 -41 -41 -44 -23 -79 -46 -48 8 14 -39 hvcurveto
          -26 -125 rlineto
          -15 41 70 -11 59 hhcurveto
          155 105 84 123 93 -66 53 -113 hvcurveto
          65 107 206 24 159 140 50 184 rlinecurve
          -207 hlineto
          -102 -42 -93 -66 -131 hhcurveto
          -147 -94 108 171 11 0 12 1 12 hvcurveto
          749 hlineto
          8 48 3 57 47 vvcurveto
          275 -169 173 -266 -315 -220 -278 -350 -249 126 -181 235 -34 vhcurveto
          endchar
        </CharString>
        <CharString name="ecircumflex">
          -99 343 633 -107 callsubr
          289 1550 -60 callgsubr
        </CharString>
        <CharString name="ecircumflexacute">
          -99 343 633 -107 callsubr
          269 1530 -66 callgsubr
          -116 339 77 callgsubr
          295 292 rlineto
          -199 hlineto
          endchar
        </CharString>
        <CharString name="ecircumflexbelow">
          -99 343 633 -107 callsubr
          38 -143 -64 callgsubr
        </CharString>
        <CharString name="ecircumflexdotbelow">
          -99 343 633 -107 callsubr
          289 1550 -78 callgsubr
          -562 -1665 -102 callsubr
        </CharString>
        <CharString name="ecircumflexgrave">
          -99 343 633 -107 callsubr
          557 1575 6 callsubr
          -134 -45 -66 callgsubr
          endchar
        </CharString>
        <CharString name="ecircumflexhookabove">
          -99 343 633 -107 callsubr
          285 1755 -48 callgsubr
        </CharString>
        <CharString name="ecircumflextilde">
          -99 343 633 -107 callsubr
          268 1525 -60 callsubr
        </CharString>
        <CharString name="ecyrillic">
          -3 callsubr
          endchar
        </CharString>
        <CharString name="edblgrave">
          -99 343 633 -107 callsubr
          62 1246 -43 callsubr
        </CharString>
        <CharString name="edieresis">
          -99 343 633 -107 callsubr
          -29 1247 -105 callgsubr
        </CharString>
        <CharString name="edotaccent">
          -99 343 633 -107 callsubr
          161 1243 -72 callsubr
        </CharString>
        <CharString name="edotbelow">
          -99 343 633 -107 callsubr
          -69 -423 -102 callsubr
        </CharString>
        <CharString name="efcyrillic">
          303 713 -348 rmoveto
          71 330 rlineto
          413 5 278 258 378 vvcurveto
          261 -184 179 -276 11 vhcurveto
          70 329 rlineto
          -211 hlineto
          -70 -326 rlineto
          -414 -5 -277 -257 -379 vvcurveto
          -261 183 -179 277 -11 vhcurveto
          -71 -333 rlineto
          753 948 rmoveto
          -247 -177 -179 -258 -10 vhcurveto
          157 728 rlineto
          173 -5 105 -109 -178 vvcurveto
          -922 -141 rmoveto
          248 177 179 258 9 vhcurveto
          -158 -728 rlineto
          -173 5 -104 110 177 vvcurveto
          endchar
        </CharString>
        <CharString name="egrave">
          -99 343 633 -107 callsubr
          227 1246 -35 callgsubr
        </CharString>
        <CharString name="ehookabove">
          -99 343 633 -107 callsubr
          20 1472 -63 callgsubr
        </CharString>
        <CharString name="eight">
          84 1206 -31 callsubr
        </CharString>
        <CharString name="eight.dnum">
          -498 619 192 -65 callgsubr
        </CharString>
        <CharString name="eight.numr">
          -498 779 942 -65 callgsubr
        </CharString>
        <CharString name="eight.subs">
          -498 547 -148 -65 callgsubr
        </CharString>
        <CharString name="eight.sups">
          -498 856 1303 -65 callgsubr
        </CharString>
        <CharString name="eight.tnum">
          78 1203 -31 callsubr
        </CharString>
        <CharString name="einvertedbreve">
          -99 343 633 -107 callsubr
          466 1229 -59 callgsubr
        </CharString>
        <CharString name="elcyrillic">
          -99 445 478 -50 callsubr
        </CharString>
</ttFont>
